<svg xmlns="http://www.w3.org/2000/svg" viewBox="0 0 670.34 593.13"><defs><style>.cls-1{fill:#203658;}.cls-2{fill:#3187ef;}.cls-3{fill:#5491f2;}.cls-4{fill:#fff;}.cls-5{fill:#00d472;}.cls-6{fill:#db5d5d;}.cls-7{fill:none;}</style></defs><title>city</title><g id="Layer_2" data-name="Layer 2"><g id="Login"><path class="cls-1" d="M209.28,280.84a1.12,1.12,0,0,0-1.12,1.12v4a1.12,1.12,0,1,0,2.25,0v-4A1.12,1.12,0,0,0,209.28,280.84Z"/><path class="cls-1" d="M209.28,288.74a1.12,1.12,0,0,0-1.12,1.12v4a1.12,1.12,0,1,0,2.25,0v-4A1.12,1.12,0,0,0,209.28,288.74Z"/><path class="cls-1" d="M209.28,272.93a1.12,1.12,0,0,0-1.12,1.12v4a1.12,1.12,0,0,0,2.25,0v-4A1.12,1.12,0,0,0,209.28,272.93Z"/><path class="cls-1" d="M209.28,265a1.12,1.12,0,0,0-1.12,1.12v4a1.12,1.12,0,1,0,2.25,0v-4A1.12,1.12,0,0,0,209.28,265Z"/><path class="cls-1" d="M209.28,257.13a1.12,1.12,0,0,0-1.12,1.12v4a1.12,1.12,0,1,0,2.25,0v-4A1.12,1.12,0,0,0,209.28,257.13Z"/><path class="cls-1" d="M209.28,304.55a1.12,1.12,0,0,0-1.12,1.12v4a1.12,1.12,0,1,0,2.25,0v-4A1.12,1.12,0,0,0,209.28,304.55Z"/><path class="cls-1" d="M209.28,328.26a1.12,1.12,0,0,0-1.12,1.12v4a1.12,1.12,0,0,0,2.25,0v-4A1.12,1.12,0,0,0,209.28,328.26Z"/><path class="cls-1" d="M209.28,336.16a1.12,1.12,0,0,0-1.12,1.12v4a1.12,1.12,0,1,0,2.25,0v-4A1.12,1.12,0,0,0,209.28,336.16Z"/><path class="cls-1" d="M209.28,320.36a1.12,1.12,0,0,0-1.12,1.12v4a1.12,1.12,0,0,0,2.25,0v-4A1.12,1.12,0,0,0,209.28,320.36Z"/><path class="cls-1" d="M209.28,249.22a1.12,1.12,0,0,0-1.12,1.12v4a1.12,1.12,0,0,0,2.25,0v-4A1.12,1.12,0,0,0,209.28,249.22Z"/><path class="cls-1" d="M209.28,296.64a1.12,1.12,0,0,0-1.12,1.12v4a1.12,1.12,0,0,0,2.25,0v-4A1.12,1.12,0,0,0,209.28,296.64Z"/><path class="cls-1" d="M209.28,312.45a1.12,1.12,0,0,0-1.12,1.12v4a1.12,1.12,0,1,0,2.25,0v-4A1.12,1.12,0,0,0,209.28,312.45Z"/><path class="cls-1" d="M209.28,209.7a1.12,1.12,0,0,0-1.12,1.12v4a1.12,1.12,0,1,0,2.25,0v-4A1.12,1.12,0,0,0,209.28,209.7Z"/><path class="cls-1" d="M209.28,170.19a1.12,1.12,0,0,0-1.12,1.12v4a1.12,1.12,0,1,0,2.25,0v-4A1.12,1.12,0,0,0,209.28,170.19Z"/><path class="cls-1" d="M209.28,162.28a1.12,1.12,0,0,0-1.12,1.12v4a1.12,1.12,0,1,0,2.25,0v-4A1.12,1.12,0,0,0,209.28,162.28Z"/><path class="cls-1" d="M209.28,186a1.12,1.12,0,0,0-1.12,1.12v4a1.12,1.12,0,1,0,2.25,0v-4A1.12,1.12,0,0,0,209.28,186Z"/><path class="cls-1" d="M209.28,178.09a1.12,1.12,0,0,0-1.12,1.12v4a1.12,1.12,0,0,0,2.25,0v-4A1.12,1.12,0,0,0,209.28,178.09Z"/><path class="cls-1" d="M209.28,154.38a1.12,1.12,0,0,0-1.12,1.12v4a1.12,1.12,0,1,0,2.25,0v-4A1.12,1.12,0,0,0,209.28,154.38Z"/><path class="cls-1" d="M209.28,146.48a1.12,1.12,0,0,0-1.12,1.12v4a1.12,1.12,0,1,0,2.25,0v-4A1.12,1.12,0,0,0,209.28,146.48Z"/><path class="cls-1" d="M209.28,193.9a1.12,1.12,0,0,0-1.12,1.12v4a1.12,1.12,0,1,0,2.25,0v-4A1.12,1.12,0,0,0,209.28,193.9Z"/><path class="cls-1" d="M209.28,225.51a1.12,1.12,0,0,0-1.12,1.12v4a1.12,1.12,0,0,0,2.25,0v-4A1.12,1.12,0,0,0,209.28,225.51Z"/><path class="cls-1" d="M209.28,233.42a1.12,1.12,0,0,0-1.12,1.12v4a1.12,1.12,0,1,0,2.25,0v-4A1.12,1.12,0,0,0,209.28,233.42Z"/><path class="cls-1" d="M209.28,241.32a1.12,1.12,0,0,0-1.12,1.12v4a1.12,1.12,0,1,0,2.25,0v-4A1.12,1.12,0,0,0,209.28,241.32Z"/><path class="cls-1" d="M209.28,201.8a1.12,1.12,0,0,0-1.12,1.12v4a1.12,1.12,0,0,0,2.25,0v-4A1.12,1.12,0,0,0,209.28,201.8Z"/><path class="cls-1" d="M209.28,217.61a1.12,1.12,0,0,0-1.12,1.12v4a1.12,1.12,0,1,0,2.25,0v-4A1.12,1.12,0,0,0,209.28,217.61Z"/><path class="cls-1" d="M331,201.93a1.12,1.12,0,0,0-1.12,1.12v4a1.12,1.12,0,1,0,2.25,0v-4A1.12,1.12,0,0,0,331,201.93Z"/><path class="cls-1" d="M331,209.84a1.12,1.12,0,0,0-1.12,1.12v4a1.12,1.12,0,0,0,2.25,0v-4A1.12,1.12,0,0,0,331,209.84Z"/><path class="cls-1" d="M331,186.12a1.12,1.12,0,0,0-1.12,1.12v4a1.12,1.12,0,0,0,2.25,0v-4A1.12,1.12,0,0,0,331,186.12Z"/><path class="cls-1" d="M331,194a1.12,1.12,0,0,0-1.12,1.12v4a1.12,1.12,0,1,0,2.25,0v-4A1.12,1.12,0,0,0,331,194Z"/><path class="cls-1" d="M331,178.22a1.12,1.12,0,0,0-1.12,1.12v4a1.12,1.12,0,1,0,2.25,0v-4A1.12,1.12,0,0,0,331,178.22Z"/><path class="cls-1" d="M331,217.74a1.12,1.12,0,0,0-1.12,1.12v4a1.12,1.12,0,1,0,2.25,0v-4A1.12,1.12,0,0,0,331,217.74Z"/><path class="cls-1" d="M331,249.35a1.12,1.12,0,0,0-1.12,1.12v4a1.12,1.12,0,1,0,2.25,0v-4A1.12,1.12,0,0,0,331,249.35Z"/><path class="cls-1" d="M331,257.26a1.12,1.12,0,0,0-1.12,1.12v4a1.12,1.12,0,0,0,2.25,0v-4A1.12,1.12,0,0,0,331,257.26Z"/><path class="cls-1" d="M331,170.32a1.12,1.12,0,0,0-1.12,1.12v4a1.12,1.12,0,1,0,2.25,0v-4A1.12,1.12,0,0,0,331,170.32Z"/><path class="cls-1" d="M331,225.64a1.12,1.12,0,0,0-1.12,1.12v4a1.12,1.12,0,1,0,2.25,0v-4A1.12,1.12,0,0,0,331,225.64Z"/><path class="cls-1" d="M331,233.55a1.12,1.12,0,0,0-1.12,1.12v4a1.12,1.12,0,0,0,2.25,0v-4A1.12,1.12,0,0,0,331,233.55Z"/><path class="cls-1" d="M331,241.45a1.12,1.12,0,0,0-1.12,1.12v4a1.12,1.12,0,1,0,2.25,0v-4A1.12,1.12,0,0,0,331,241.45Z"/><path class="cls-1" d="M331,99.18a1.12,1.12,0,0,0-1.12,1.12v4a1.12,1.12,0,0,0,2.25,0v-4A1.12,1.12,0,0,0,331,99.18Z"/><path class="cls-1" d="M331,83.38a1.12,1.12,0,0,0-1.12,1.12v4a1.12,1.12,0,1,0,2.25,0v-4A1.12,1.12,0,0,0,331,83.38Z"/><path class="cls-1" d="M331,91.28a1.12,1.12,0,0,0-1.12,1.12v4a1.12,1.12,0,1,0,2.25,0v-4A1.12,1.12,0,0,0,331,91.28Z"/><path class="cls-1" d="M331,107.09a1.12,1.12,0,0,0-1.12,1.12v4a1.12,1.12,0,1,0,2.25,0v-4A1.12,1.12,0,0,0,331,107.09Z"/><path class="cls-1" d="M331,115a1.12,1.12,0,0,0-1.12,1.12v4a1.12,1.12,0,1,0,2.25,0v-4A1.12,1.12,0,0,0,331,115Z"/><path class="cls-1" d="M331,67.57a1.12,1.12,0,0,0-1.12,1.12v4a1.12,1.12,0,1,0,2.25,0v-4A1.12,1.12,0,0,0,331,67.57Z"/><path class="cls-1" d="M331,75.47a1.12,1.12,0,0,0-1.12,1.12v4a1.12,1.12,0,1,0,2.25,0v-4A1.12,1.12,0,0,0,331,75.47Z"/><path class="cls-1" d="M331,138.7a1.12,1.12,0,0,0-1.12,1.12v4a1.12,1.12,0,1,0,2.25,0v-4A1.12,1.12,0,0,0,331,138.7Z"/><path class="cls-1" d="M331,154.51a1.12,1.12,0,0,0-1.12,1.12v4a1.12,1.12,0,1,0,2.25,0v-4A1.12,1.12,0,0,0,331,154.51Z"/><path class="cls-1" d="M331,146.61a1.12,1.12,0,0,0-1.12,1.12v4a1.12,1.12,0,1,0,2.25,0v-4A1.12,1.12,0,0,0,331,146.61Z"/><path class="cls-1" d="M331,162.41a1.12,1.12,0,0,0-1.12,1.12v4a1.12,1.12,0,1,0,2.25,0v-4A1.12,1.12,0,0,0,331,162.41Z"/><path class="cls-1" d="M331,122.9a1.12,1.12,0,0,0-1.12,1.12v4a1.12,1.12,0,1,0,2.25,0v-4A1.12,1.12,0,0,0,331,122.9Z"/><path class="cls-1" d="M331,130.8a1.12,1.12,0,0,0-1.12,1.12v4a1.12,1.12,0,1,0,2.25,0v-4A1.12,1.12,0,0,0,331,130.8Z"/><polygon class="cls-2" points="417.59 492.78 366.67 492.78 365.83 447.54 417.59 480.06 417.59 492.78"/><path class="cls-1" d="M361.91,504.48h50.92a1.79,1.79,0,0,0,0-3.57H361.91a1.79,1.79,0,0,0,0,3.57Z"/><path class="cls-1" d="M360.12,510.56v32.92a1.79,1.79,0,0,0,3.57,0V510.56a1.79,1.79,0,0,0-3.57,0Z"/><path class="cls-1" d="M387.13,510.56v32.92a1.79,1.79,0,0,0,3.57,0V510.56a1.79,1.79,0,0,0-3.57,0Z"/><path class="cls-1" d="M411,510.56v32.92a1.79,1.79,0,0,0,3.57,0V510.56a1.79,1.79,0,0,0-3.57,0Z"/><path class="cls-1" d="M399.09,510.56v32.92a1.79,1.79,0,0,0,3.57,0V510.56a1.79,1.79,0,0,0-3.57,0Z"/><path class="cls-1" d="M373.63,510.56v32.92a1.79,1.79,0,0,0,3.57,0V510.56a1.79,1.79,0,0,0-3.57,0Z"/><path class="cls-1" d="M361.91,553.14h50.92a1.79,1.79,0,0,0,0-3.57H361.91a1.79,1.79,0,0,0,0,3.57Z"/><path class="cls-1" d="M436.07,460l-4.44-2.79-.05,0-49.33-31L340,399.7a1.8,1.8,0,0,0-2.69,1.54V583.08a1.81,1.81,0,0,0,1.79,1.79h96.45a1.65,1.65,0,0,0,1.21-.48l.06-.06,0,0a1.65,1.65,0,0,0,.48-1.22V462.52A3.76,3.76,0,0,0,436.07,460ZM433.8,567.84V581.3H340.93V404.47l81.82,51.42,11.06,6.95Z"/><path class="cls-1" d="M414,473.91l-7.37-4.63-.23-.14-34.76-21.85L362,441.23a1.8,1.8,0,0,0-2.69,1.54l.83,45.25a1.81,1.81,0,0,0,1.79,1.79h50.92a1.65,1.65,0,0,0,1.21-.48l.06-.06,0,0a1.65,1.65,0,0,0,.48-1.22V475.23a3.09,3.09,0,0,0-.52-1.2ZM411,486.23H363.66L362.92,446,411,476.28Z"/><rect class="cls-2" x="18.75" y="466.36" width="72.04" height="24.87"/><rect class="cls-2" x="18.75" y="429.99" width="72.04" height="24.87"/><path class="cls-1" d="M98.23,399.46H1.79A1.81,1.81,0,0,0,0,401.24V583.08a1.81,1.81,0,0,0,1.79,1.79H98.23a1.65,1.65,0,0,0,1.21-.48l.06-.06,0,0a1.65,1.65,0,0,0,.48-1.22V401.24A1.81,1.81,0,0,0,98.23,399.46ZM13.87,581.3H3.57V403H96.45V581.3Z"/><path class="cls-1" d="M87.82,498A1.81,1.81,0,0,0,86,496.19H14A1.81,1.81,0,0,0,12.2,498v24.87A1.81,1.81,0,0,0,14,524.63H86a1.65,1.65,0,0,0,1.21-.48l.06-.06,0,0a1.65,1.65,0,0,0,.48-1.22ZM23.11,521.06H15.77v-21.3H84.25v21.3Z"/><path class="cls-1" d="M87.82,461.6A1.81,1.81,0,0,0,86,459.82H14a1.81,1.81,0,0,0-1.79,1.79v24.87A1.81,1.81,0,0,0,14,488.26H86a1.65,1.65,0,0,0,1.21-.48l.06-.06,0,0a1.65,1.65,0,0,0,.48-1.22ZM23.11,484.68H15.77v-21.3H84.25v21.3Z"/><path class="cls-1" d="M87.82,425.22A1.81,1.81,0,0,0,86,423.44H14a1.81,1.81,0,0,0-1.79,1.79v24.87A1.81,1.81,0,0,0,14,451.88H86a1.65,1.65,0,0,0,1.21-.48l.06-.06,0,0a1.65,1.65,0,0,0,.48-1.22ZM23.11,448.31H15.77V427H84.25v21.3Z"/><path class="cls-1" d="M35.17,536.92H86.09a1.79,1.79,0,0,0,0-3.57H35.17a1.79,1.79,0,0,0,0,3.57Z"/><rect class="cls-2" x="127.6" y="357.23" width="85.73" height="24.87"/><rect class="cls-2" x="128.39" y="502.74" width="34.81" height="24.87"/><rect class="cls-2" x="179.31" y="502.74" width="34.81" height="24.87"/><rect class="cls-2" x="128.39" y="466.36" width="34.81" height="24.87"/><rect class="cls-2" x="179.31" y="429.99" width="34.81" height="24.87"/><path class="cls-1" d="M226.82,338.84H106.17a1.81,1.81,0,0,0-1.79,1.79V583.08a1.81,1.81,0,0,0,1.79,1.79H226.82a1.65,1.65,0,0,0,1.21-.48l.06-.06,0,0a1.65,1.65,0,0,0,.48-1.22V340.63A1.81,1.81,0,0,0,226.82,338.84ZM121,581.3H108V342.41H225V581.3Z"/><path class="cls-1" d="M160.23,498a1.81,1.81,0,0,0-1.79-1.79H123.63a1.81,1.81,0,0,0-1.79,1.79v24.87a1.81,1.81,0,0,0,1.79,1.79h34.81a1.65,1.65,0,0,0,1.21-.48l.06-.06,0,0a1.65,1.65,0,0,0,.48-1.22Zm-3.57,23.08H125.42v-21.3h31.24Z"/><path class="cls-1" d="M211.14,498a1.81,1.81,0,0,0-1.79-1.79H174.55a1.81,1.81,0,0,0-1.79,1.79v24.87a1.81,1.81,0,0,0,1.79,1.79h34.81a1.65,1.65,0,0,0,1.21-.48l.06-.06,0,0a1.65,1.65,0,0,0,.48-1.22Zm-3.57,23.08H176.34v-21.3h31.24Z"/><path class="cls-1" d="M160.23,461.6a1.81,1.81,0,0,0-1.79-1.79H123.63a1.81,1.81,0,0,0-1.79,1.79v24.87a1.81,1.81,0,0,0,1.79,1.79h34.81a1.65,1.65,0,0,0,1.21-.48l.06-.06,0,0a1.65,1.65,0,0,0,.48-1.22Zm-3.57,23.08H125.42v-21.3h31.24Z"/><path class="cls-1" d="M211.14,461.6a1.81,1.81,0,0,0-1.79-1.79H174.55a1.81,1.81,0,0,0-1.79,1.79v24.87a1.81,1.81,0,0,0,1.79,1.79h34.81a1.65,1.65,0,0,0,1.21-.48l.06-.06,0,0a1.65,1.65,0,0,0,.48-1.22Zm-3.57,23.08H176.34v-21.3h31.24Z"/><path class="cls-1" d="M160.23,425.22a1.81,1.81,0,0,0-1.79-1.79H123.63a1.81,1.81,0,0,0-1.79,1.79v24.87a1.81,1.81,0,0,0,1.79,1.79h34.81a1.65,1.65,0,0,0,1.21-.48l.06-.06,0,0a1.65,1.65,0,0,0,.48-1.22Zm-3.57,23.08H125.42V427h31.24Z"/><path class="cls-1" d="M211.14,352.47a1.81,1.81,0,0,0-1.79-1.79H123.63a1.81,1.81,0,0,0-1.79,1.79v24.87a1.81,1.81,0,0,0,1.79,1.79h85.73a1.65,1.65,0,0,0,1.21-.48l.06-.06,0,0a1.65,1.65,0,0,0,.48-1.22Zm-76.81,23.08h-8.91v-21.3h82.15v21.3Z"/><path class="cls-1" d="M211.14,425.22a1.81,1.81,0,0,0-1.79-1.79H174.55a1.81,1.81,0,0,0-1.79,1.79v24.87a1.81,1.81,0,0,0,1.79,1.79h34.81a1.65,1.65,0,0,0,1.21-.48l.06-.06,0,0a1.65,1.65,0,0,0,.48-1.22Zm-3.57,23.08H176.34V427h31.24Z"/><path class="cls-1" d="M123.63,410.71h85.73a1.79,1.79,0,0,0,0-3.57H123.63a1.79,1.79,0,0,0,0,3.57Z"/><path class="cls-1" d="M123.63,395.34h85.73a1.79,1.79,0,0,0,0-3.57H123.63a1.79,1.79,0,0,0,0,3.57Z"/><path class="cls-1" d="M158.5,553.14h50.92a1.79,1.79,0,0,0,0-3.57H158.5a1.79,1.79,0,0,0,0,3.57Z"/><rect class="cls-2" x="474.16" y="497.91" width="24.76" height="24.76"/><rect class="cls-2" x="518.29" y="497.91" width="24.76" height="24.76"/><rect class="cls-2" x="474.16" y="531.78" width="24.76" height="24.76"/><path class="cls-1" d="M564.17,460.07H443.53a1.81,1.81,0,0,0-1.79,1.79V583.08a1.81,1.81,0,0,0,1.79,1.79H564.17a1.65,1.65,0,0,0,1.21-.48l.06-.06,0,0a1.65,1.65,0,0,0,.48-1.22V461.85A1.81,1.81,0,0,0,564.17,460.07Zm-1.79,107.77V581.3H445.31V463.64H562.39Z"/><path class="cls-1" d="M494.17,491.37H469.4a1.81,1.81,0,0,0-1.79,1.79v24.76a1.81,1.81,0,0,0,1.79,1.79h24.76a1.65,1.65,0,0,0,1.21-.48l.06-.06,0,0a1.65,1.65,0,0,0,.48-1.22V493.15A1.81,1.81,0,0,0,494.17,491.37Zm-1.79,24.76H471.19V494.94h21.19Z"/><path class="cls-1" d="M538.3,491.37H513.53a1.81,1.81,0,0,0-1.79,1.79v24.76a1.81,1.81,0,0,0,1.79,1.79H538.3a1.65,1.65,0,0,0,1.21-.48l.06-.06,0,0a1.65,1.65,0,0,0,.48-1.22V493.15A1.81,1.81,0,0,0,538.3,491.37Zm-1.79,24.76H515.32V494.94h21.19Z"/><path class="cls-1" d="M494.17,525.23H469.4a1.81,1.81,0,0,0-1.79,1.79v24.76a1.81,1.81,0,0,0,1.79,1.79h24.76a1.65,1.65,0,0,0,1.21-.48l.06-.06,0,0a1.65,1.65,0,0,0,.48-1.22V527A1.81,1.81,0,0,0,494.17,525.23ZM492.38,550H471.19V528.81h21.19Z"/><path class="cls-1" d="M538.3,525.23H513.53a1.81,1.81,0,0,0-1.79,1.79v24.76a1.81,1.81,0,0,0,1.79,1.79H538.3a1.65,1.65,0,0,0,1.21-.48l.06-.06,0,0a1.65,1.65,0,0,0,.48-1.22V527A1.81,1.81,0,0,0,538.3,525.23ZM536.51,550H515.32V528.81h21.19Z"/><g id="_Group_" data-name="&lt;Group&gt;"><circle id="_Path_" data-name="&lt;Path&gt;" class="cls-2" cx="415.57" cy="259.36" r="23.09"/></g><g id="_Group_2" data-name="&lt;Group&gt;"><g id="_Group_3" data-name="&lt;Group&gt;"><path id="_Path_2" data-name="&lt;Path&gt;" class="cls-1" d="M432.59,255.18A22.91,22.91,0,0,1,410,277.82c-12.48.19-22.45-10.44-22.63-22.63-.19-12.48,10.44-22.45,22.63-22.63,12.48-.19,22.45,10.44,22.63,22.63a1.34,1.34,0,0,0,2.68,0,25.68,25.68,0,0,0-19.16-24.56c-11.25-3-23.13,2.74-28.57,12.8-5.55,10.25-2.78,23.2,5.79,30.83s21.93,8.11,31.35,1.5a25.56,25.56,0,0,0,10.59-20.58A1.34,1.34,0,0,0,432.59,255.18Z"/></g><g id="_Group_4" data-name="&lt;Group&gt;"><g id="_Group_5" data-name="&lt;Group&gt;"><path id="_Path_3" data-name="&lt;Path&gt;" class="cls-1" d="M376.46,230.1l10.87,8.73c1.33,1.07,3.24-.81,1.89-1.89l-10.87-8.73c-1.33-1.07-3.24.81-1.89,1.89Z"/></g><g id="_Group_6" data-name="&lt;Group&gt;"><path id="_Path_4" data-name="&lt;Path&gt;" class="cls-1" d="M399.31,229.24,393,216.91c-.78-1.54-3.09-.18-2.31,1.35L397,230.59c.78,1.54,3.09.18,2.31-1.35Z"/></g><g id="_Group_7" data-name="&lt;Group&gt;"><path id="_Path_5" data-name="&lt;Path&gt;" class="cls-1" d="M369.72,265.68l13.77-3.14c1.68-.38,1-3-.71-2.58L369,263.09c-1.68.38-1,3,.71,2.58Z"/></g><g id="_Group_8" data-name="&lt;Group&gt;"><path id="_Path_6" data-name="&lt;Path&gt;" class="cls-1" d="M383.44,247.69l-13.72-3.13c-1.68-.38-2.39,2.2-.71,2.58l13.72,3.13c1.68.38,2.39-2.2.71-2.58Z"/></g><g id="_Group_9" data-name="&lt;Group&gt;"><path id="_Path_7" data-name="&lt;Path&gt;" class="cls-1" d="M408.63,213.47V228a1.34,1.34,0,0,0,2.68,0V213.47a1.34,1.34,0,0,0-2.68,0Z"/></g><g id="_Group_10" data-name="&lt;Group&gt;"><path id="_Path_8" data-name="&lt;Path&gt;" class="cls-1" d="M423.26,230.59l5.94-12.33c.75-1.55-1.56-2.91-2.31-1.35l-5.94,12.33c-.75,1.55,1.56,2.91,2.31,1.35Z"/></g><g id="_Group_11" data-name="&lt;Group&gt;"><path id="_Path_9" data-name="&lt;Path&gt;" class="cls-1" d="M378.36,282l10.87-8.67c1.35-1.08-.56-3-1.89-1.89l-10.87,8.67c-1.35,1.08.56,3,1.89,1.89Z"/></g><g id="_Group_12" data-name="&lt;Group&gt;"><path id="_Path_10" data-name="&lt;Path&gt;" class="cls-1" d="M450.92,263.09,437.14,260c-1.68-.38-2.39,2.2-.71,2.58l13.77,3.14c1.68.38,2.39-2.2.71-2.58Z"/></g><g id="_Group_13" data-name="&lt;Group&gt;"><path id="_Path_11" data-name="&lt;Path&gt;" class="cls-1" d="M430.11,272.89,441.57,282c1.33,1.06,3.24-.82,1.89-1.89L432,271c-1.33-1.06-3.24.82-1.89,1.89Z"/></g><g id="_Group_14" data-name="&lt;Group&gt;"><path id="_Path_12" data-name="&lt;Path&gt;" class="cls-1" d="M437.14,250.29l13.77-3.14c1.68-.38,1-3-.71-2.58l-13.77,3.14c-1.68.38-1,3,.71,2.58Z"/></g><g id="_Group_15" data-name="&lt;Group&gt;"><path id="_Path_13" data-name="&lt;Path&gt;" class="cls-1" d="M441.57,228.21l-10.95,8.73c-1.35,1.08.56,3,1.89,1.89l10.95-8.73c1.35-1.08-.56-3-1.89-1.89Z"/></g><g id="_Group_16" data-name="&lt;Group&gt;"><path id="_Path_14" data-name="&lt;Path&gt;" class="cls-1" d="M429.19,292l-6.26-13c-.75-1.55-3.06-.2-2.31,1.35l6.26,13c.75,1.55,3.06.2,2.31-1.35Z"/></g><g id="_Group_17" data-name="&lt;Group&gt;"><path id="_Path_15" data-name="&lt;Path&gt;" class="cls-1" d="M408.63,282.42v14.35a1.34,1.34,0,0,0,2.68,0V282.42a1.34,1.34,0,0,0-2.68,0Z"/></g><g id="_Group_18" data-name="&lt;Group&gt;"><path id="_Path_16" data-name="&lt;Path&gt;" class="cls-1" d="M393,293.33l6.26-12.4c.78-1.54-1.53-2.89-2.31-1.35L390.73,292c-.78,1.54,1.53,2.89,2.31,1.35Z"/></g></g></g><path id="_Path_17" data-name="&lt;Path&gt;" class="cls-2" d="M161.63,251.44a15.54,15.54,0,0,0-30.82.66,15.76,15.76,0,1,0-4.57,30.85h34.68a15.76,15.76,0,0,0,.71-31.51Z"/><g id="_Group_19" data-name="&lt;Group&gt;"><path id="_Compound_Path_" data-name="&lt;Compound Path&gt;" class="cls-1" d="M153.32,282.2H118.64a17.74,17.74,0,1,1,3-35.23,17.52,17.52,0,0,1,34.06-.09,17.74,17.74,0,0,1-2.36,35.32Zm-34.68-31.53a13.79,13.79,0,1,0,0,27.57h34.68a13.78,13.78,0,0,0,.62-27.55l-1.63-.07-.24-1.61a13.56,13.56,0,0,0-26.9.57l-.25,2.37-2.28-.69A13.79,13.79,0,0,0,118.64,250.67Z"/></g><path id="_Path_18" data-name="&lt;Path&gt;" class="cls-2" d="M496.47,356.58a15.54,15.54,0,0,0-30.82.66,15.76,15.76,0,1,0-4.57,30.85h34.68a15.76,15.76,0,0,0,.71-31.51Z"/><g id="_Group_20" data-name="&lt;Group&gt;"><path id="_Compound_Path_2" data-name="&lt;Compound Path&gt;" class="cls-1" d="M488.16,387.34H453.48a17.74,17.74,0,1,1,3-35.23,17.52,17.52,0,0,1,34.06-.09,17.74,17.74,0,0,1-2.36,35.32Zm-34.68-31.53a13.79,13.79,0,1,0,0,27.57h34.68a13.78,13.78,0,0,0,.62-27.55l-1.63-.07-.24-1.61a13.56,13.56,0,0,0-26.9.57l-.25,2.37-2.28-.69A13.79,13.79,0,0,0,453.48,355.81Z"/></g><rect class="cls-2" x="262.28" y="466.36" width="20.67" height="24.87"/><rect class="cls-2" x="292.53" y="466.36" width="20.67" height="24.87"/><rect class="cls-2" x="262.28" y="429.99" width="20.67" height="24.87"/><rect class="cls-2" x="262.28" y="393.61" width="50.92" height="24.87"/><rect class="cls-2" x="262.28" y="275.26" width="20.67" height="97.62"/><rect class="cls-2" x="292.53" y="275.26" width="20.67" height="97.62"/><path class="cls-1" d="M280,461.6a1.81,1.81,0,0,0-1.79-1.79H257.52a1.81,1.81,0,0,0-1.79,1.79v24.87a1.81,1.81,0,0,0,1.79,1.79h20.67a1.65,1.65,0,0,0,1.21-.48l.06-.06,0,0a1.65,1.65,0,0,0,.48-1.22Zm-3.57,23.08h-17.1v-21.3h17.1Z"/><path class="cls-1" d="M310.22,461.6a1.81,1.81,0,0,0-1.79-1.79H287.76A1.81,1.81,0,0,0,286,461.6v24.87a1.81,1.81,0,0,0,1.79,1.79h20.67a1.65,1.65,0,0,0,1.21-.48l.06-.06,0,0a1.65,1.65,0,0,0,.48-1.22Zm-3.57,23.08h-17.1v-21.3h17.1Z"/><path class="cls-1" d="M280,425.22a1.81,1.81,0,0,0-1.79-1.79H257.52a1.81,1.81,0,0,0-1.79,1.79v24.87a1.81,1.81,0,0,0,1.79,1.79h20.67a1.65,1.65,0,0,0,1.21-.48l.06-.06,0,0a1.65,1.65,0,0,0,.48-1.22Zm-3.57,23.08h-17.1V427h17.1Z"/><path class="cls-1" d="M310.22,425.22a1.81,1.81,0,0,0-1.79-1.79H287.76a1.81,1.81,0,0,0-1.79,1.79v24.87a1.81,1.81,0,0,0,1.79,1.79h20.67a1.65,1.65,0,0,0,1.21-.48l.06-.06,0,0a1.65,1.65,0,0,0,.48-1.22Zm-3.57,23.08h-17.1V427h17.1Z"/><path class="cls-1" d="M310.22,388.85a1.81,1.81,0,0,0-1.79-1.79H257.52a1.81,1.81,0,0,0-1.79,1.79v24.87a1.81,1.81,0,0,0,1.79,1.79h50.92a1.65,1.65,0,0,0,1.21-.48l.06-.06,0,0a1.65,1.65,0,0,0,.48-1.22Zm-3.57,23.08H259.31v-21.3h47.35Z"/><path class="cls-1" d="M278.19,268.71H257.52a1.81,1.81,0,0,0-1.79,1.79v97.62a1.81,1.81,0,0,0,1.79,1.79h20.67a1.65,1.65,0,0,0,1.21-.48l.06-.06,0,0a1.65,1.65,0,0,0,.48-1.22V270.5A1.81,1.81,0,0,0,278.19,268.71Zm-18.89,3.57h17.1v94.05h-17.1V272.28Z"/><path class="cls-1" d="M308.44,268.71H287.76A1.81,1.81,0,0,0,286,270.5v97.62a1.81,1.81,0,0,0,1.79,1.79h20.67a1.65,1.65,0,0,0,1.21-.48l.06-.06,0,0a1.65,1.65,0,0,0,.48-1.22V270.5A1.81,1.81,0,0,0,308.44,268.71Zm-18.89,3.57h17.1v94.05h-17.1V272.28Z"/><path class="cls-1" d="M257.52,504.48h50.92a1.79,1.79,0,0,0,0-3.57H257.52a1.79,1.79,0,0,0,0,3.57Z"/><path class="cls-1" d="M257.52,520.7h50.92a1.79,1.79,0,0,0,0-3.57H257.52a1.79,1.79,0,0,0,0,3.57Z"/><path class="cls-1" d="M257.52,536.92h50.92a1.79,1.79,0,0,0,0-3.57H257.52a1.79,1.79,0,0,0,0,3.57Z"/><path class="cls-1" d="M257.52,553.14h50.92a1.79,1.79,0,0,0,0-3.57H257.52a1.79,1.79,0,0,0,0,3.57Z"/><path class="cls-1" d="M331.2,257.2H234.75A1.81,1.81,0,0,0,233,259v324.1a1.81,1.81,0,0,0,1.79,1.79H331.2a1.65,1.65,0,0,0,1.21-.48l.06-.06,0,0a1.65,1.65,0,0,0,.48-1.22V259A1.81,1.81,0,0,0,331.2,257.2ZM249.62,581.3H236.54V260.77h92.87V581.3Z"/><rect class="cls-2" x="588.38" y="388.84" width="20.67" height="24.87"/><rect class="cls-2" x="620.45" y="388.84" width="20.67" height="24.87"/><rect class="cls-2" x="588.38" y="352.46" width="20.67" height="24.87"/><rect class="cls-2" x="620.45" y="316.08" width="20.67" height="24.87"/><rect class="cls-2" x="588.38" y="497.97" width="20.67" height="24.87"/><rect class="cls-2" x="620.45" y="497.97" width="20.67" height="24.87"/><rect class="cls-2" x="588.38" y="461.59" width="20.67" height="24.87"/><rect class="cls-2" x="620.45" y="461.59" width="20.67" height="24.87"/><rect class="cls-2" x="620.45" y="425.21" width="20.67" height="24.87"/><path class="cls-1" d="M638.15,384.07a1.81,1.81,0,0,0-1.79-1.79H615.69a1.81,1.81,0,0,0-1.79,1.79v24.87a1.81,1.81,0,0,0,1.79,1.79h20.67a1.65,1.65,0,0,0,1.21-.48l.06-.06,0,0a1.65,1.65,0,0,0,.48-1.22Zm-3.57,23.08h-17.1v-21.3h17.1Z"/><path class="cls-1" d="M636.36,345.91H615.69a1.81,1.81,0,0,0-1.79,1.79v24.87a1.81,1.81,0,0,0,1.79,1.79h20.67a1.65,1.65,0,0,0,1.21-.48l.06-.06,0,0a1.65,1.65,0,0,0,.48-1.22V347.7A1.81,1.81,0,0,0,636.36,345.91Zm-1.79,24.87h-17.1v-21.3h17.1Z"/><path class="cls-1" d="M638.15,311.32a1.81,1.81,0,0,0-1.79-1.79H615.69a1.81,1.81,0,0,0-1.79,1.79v24.87a1.81,1.81,0,0,0,1.79,1.79h20.67a1.65,1.65,0,0,0,1.21-.48l.06-.06,0,0a1.65,1.65,0,0,0,.48-1.22Zm-3.57,23.08h-17.1V313.1h17.1Z"/><path class="cls-1" d="M638.15,493.21a1.81,1.81,0,0,0-1.79-1.79H615.69a1.81,1.81,0,0,0-1.79,1.79v24.87a1.81,1.81,0,0,0,1.79,1.79h20.67a1.65,1.65,0,0,0,1.21-.48l.06-.06,0,0a1.65,1.65,0,0,0,.48-1.22Zm-3.57,23.08h-17.1V495h17.1Z"/><path class="cls-1" d="M638.15,456.83a1.81,1.81,0,0,0-1.79-1.79H615.69a1.81,1.81,0,0,0-1.79,1.79V481.7a1.81,1.81,0,0,0,1.79,1.79h20.67a1.65,1.65,0,0,0,1.21-.48l.06-.06,0,0a1.65,1.65,0,0,0,.48-1.22Zm-3.57,23.08h-17.1v-21.3h17.1Z"/><path class="cls-1" d="M638.15,420.45a1.81,1.81,0,0,0-1.79-1.79H615.69a1.81,1.81,0,0,0-1.79,1.79v24.87a1.81,1.81,0,0,0,1.79,1.79h20.67a1.65,1.65,0,0,0,1.21-.48l.06-.06,0,0a1.65,1.65,0,0,0,.48-1.22Zm-3.57,23.08h-17.1v-21.3h17.1Z"/><path class="cls-1" d="M606.08,384.07a1.81,1.81,0,0,0-1.79-1.79H583.62a1.81,1.81,0,0,0-1.79,1.79v24.87a1.81,1.81,0,0,0,1.79,1.79h20.67a1.65,1.65,0,0,0,1.21-.48l.06-.06,0,0a1.65,1.65,0,0,0,.48-1.22Zm-3.57,23.08h-17.1v-21.3h17.1Z"/><path class="cls-1" d="M606.08,347.7a1.81,1.81,0,0,0-1.79-1.79H583.62a1.81,1.81,0,0,0-1.79,1.79v24.87a1.81,1.81,0,0,0,1.79,1.79h20.67a1.65,1.65,0,0,0,1.21-.48l.06-.06,0,0a1.65,1.65,0,0,0,.48-1.22Zm-3.57,23.08h-17.1v-21.3h17.1Z"/><path class="cls-1" d="M606.08,311.32a1.81,1.81,0,0,0-1.79-1.79H583.62a1.81,1.81,0,0,0-1.79,1.79v24.87a1.81,1.81,0,0,0,1.79,1.79h20.67a1.65,1.65,0,0,0,1.21-.48l.06-.06,0,0a1.65,1.65,0,0,0,.48-1.22Zm-3.57,23.08h-17.1V313.1h17.1Z"/><path class="cls-1" d="M606.08,493.21a1.81,1.81,0,0,0-1.79-1.79H583.62a1.81,1.81,0,0,0-1.79,1.79v24.87a1.81,1.81,0,0,0,1.79,1.79h20.67a1.65,1.65,0,0,0,1.21-.48l.06-.06,0,0a1.65,1.65,0,0,0,.48-1.22Zm-3.57,23.08h-17.1V495h17.1Z"/><path class="cls-1" d="M606.08,456.83a1.81,1.81,0,0,0-1.79-1.79H583.62a1.81,1.81,0,0,0-1.79,1.79V481.7a1.81,1.81,0,0,0,1.79,1.79h20.67a1.65,1.65,0,0,0,1.21-.48l.06-.06,0,0a1.65,1.65,0,0,0,.48-1.22Zm-3.57,23.08h-17.1v-21.3h17.1Z"/><path class="cls-1" d="M606.08,420.45a1.81,1.81,0,0,0-1.79-1.79H583.62a1.81,1.81,0,0,0-1.79,1.79v24.87a1.81,1.81,0,0,0,1.79,1.79h20.67a1.65,1.65,0,0,0,1.21-.48l.06-.06,0,0a1.65,1.65,0,0,0,.48-1.22Zm-3.57,23.08h-17.1v-21.3h17.1Z"/><path class="cls-1" d="M583.6,553.14h50.92a1.79,1.79,0,0,0,0-3.57H583.6a1.79,1.79,0,0,0,0,3.57Z"/><path class="cls-1" d="M668.55,298H572.11a1.81,1.81,0,0,0-1.79,1.79V583.08a1.81,1.81,0,0,0,1.79,1.79h96.44a1.65,1.65,0,0,0,1.21-.48l.06-.06,0,0a1.65,1.65,0,0,0,.48-1.22V299.81A1.81,1.81,0,0,0,668.55,298ZM587,581.3H573.9V301.59h92.87V581.3Z"/><path id="_Path_19" data-name="&lt;Path&gt;" class="cls-2" d="M124.85,467.54c-8.72.76-20.12,58.48-15.49,73.89,4,13.48,15.49,16,15.49,16s11.44-2.5,15.49-16C145,526,133.57,468.3,124.85,467.54Z"/><path class="cls-1" d="M124.88,464.57a6.45,6.45,0,0,0-3.3-2.64,1.26,1.26,0,0,0-.53-.11h-.35a1.26,1.26,0,0,0-.53.11,6.45,6.45,0,0,0-3.3,2.64c-8.51,11.45-16.82,59.06-12.7,72.78,3.46,11.52,12,15.41,15.19,16.49v38a1.27,1.27,0,0,0,2.53,0V554c2.72-.82,12-4.47,15.68-16.65C141.7,523.63,133.39,476,124.88,464.57Zm10.28,72.05a22.32,22.32,0,0,1-8.67,12.3,20.45,20.45,0,0,1-4.59,2.4V526.74l9.23-12.46a1.27,1.27,0,0,0-2-1.51l-7.2,9.72V492.77a1.27,1.27,0,1,0-2.53,0v15.49l-6.52-6.11a1.27,1.27,0,1,0-1.73,1.85l8.25,7.74v39.41a20.71,20.71,0,0,1-4.09-2.21,22.31,22.31,0,0,1-8.67-12.3c-3.89-12.94,4.28-59.75,12.31-70.54,1-1.29,1.62-1.63,2-1.71.34.08,1,.42,2,1.71C130.88,476.88,139,523.68,135.16,536.63Z"/><g id="_Group_21" data-name="&lt;Group&gt;"><g id="_Group_22" data-name="&lt;Group&gt;"><g id="_Group_23" data-name="&lt;Group&gt;"><path id="_Path_20" data-name="&lt;Path&gt;" class="cls-2" d="M260.76,534.47s-.12-.64-.34-.39c-.23-.25-.35.4-.35.4-4.66,5.4-30.32,36.87.12,42v.09l.26-.05.31.05v-.12C290.78,570.31,265.41,539.74,260.76,534.47Z"/></g></g></g><path id="_Compound_Path_3" data-name="&lt;Compound Path&gt;" class="cls-1" d="M270.61,552.24a54.66,54.66,0,0,0-11.31-18.38,1.21,1.21,0,0,0-1.9.09,1.44,1.44,0,0,0-2,0,1.21,1.21,0,0,0-1.89-.08,56.21,56.21,0,0,0-11.31,18.38c-1.68,4.61-2.32,9.76-.76,14.49,1.94,5.87,7.22,9.46,12.66,11.75a1,1,0,0,0,1.37-.41,1.34,1.34,0,0,0,.64.32,1.21,1.21,0,0,0-1.15,1.28l.27,12.17a1.34,1.34,0,0,0,2.68,0l-.27-12.17a1.26,1.26,0,0,0-1.06-1.26,1.36,1.36,0,0,0,.8-.36,1,1,0,0,0,1.38.42c5.45-2.3,10.22-5.67,12.5-11.3C273.13,562.43,272.24,556.93,270.61,552.24Zm-1.82,3L257.7,566.36v-13l7.16-7.16c.87,1.57,1.68,3.17,2.39,4.79A30.92,30.92,0,0,1,268.79,555.28Zm-5.33-11.49-5.75,5.75V536.1A54.84,54.84,0,0,1,263.46,543.79ZM255,536.12v13.4l-5.75-5.75A55.57,55.57,0,0,1,255,536.12Zm-7.16,10,7.16,7.16v13L244,555.28A35.53,35.53,0,0,1,245.5,551,50.21,50.21,0,0,1,247.87,546.15Zm-4.31,18.49a15.89,15.89,0,0,1-.25-6.23L255,570.13V576a1.5,1.5,0,0,0-.27-.15C249.61,573.73,245,570.26,243.56,564.64Zm25.75-.46c-1.13,5.84-6.12,9.54-11.31,11.72a1.48,1.48,0,0,0-.29.17v-5.91l11.72-11.72A17.91,17.91,0,0,1,269.3,564.17Z"/><circle class="cls-2" cx="461.25" cy="540.48" r="31.32"/><path class="cls-1" d="M488.6,537.31A31.32,31.32,0,1,0,456,568.6v23.27a1.27,1.27,0,1,0,2.53,0V568.6A31.36,31.36,0,0,0,488.6,537.31Zm-30.06,28.76v-9.49l9.72-14.44a1.27,1.27,0,0,0-2.1-1.41L458.55,552V525.92a1.27,1.27,0,1,0-2.53,0v12.47l-6.14-6.1a1.27,1.27,0,1,0-1.78,1.79L456,542v24.11a28.79,28.79,0,1,1,2.53,0Z"/><g id="_Group_24" data-name="&lt;Group&gt;"><g id="_Group_25" data-name="&lt;Group&gt;"><g id="_Group_26" data-name="&lt;Group&gt;"><path id="_Path_21" data-name="&lt;Path&gt;" class="cls-2" d="M563.19,534.47s-.12-.64-.34-.39c-.23-.25-.35.4-.35.4-4.66,5.4-30.32,36.87.12,42v.09l.26-.05.31.05v-.12C593.21,570.31,567.83,539.74,563.19,534.47Z"/></g></g></g><path class="cls-1" d="M573,552.24a54.66,54.66,0,0,0-11.31-18.38,1.21,1.21,0,0,0-1.9.09,1.44,1.44,0,0,0-2,0,1.21,1.21,0,0,0-1.89-.08,56.21,56.21,0,0,0-11.31,18.38c-1.68,4.61-2.32,9.76-.76,14.49,1.94,5.87,7.22,9.46,12.66,11.75a1,1,0,0,0,1.37-.41,1.34,1.34,0,0,0,.64.32,1.21,1.21,0,0,0-1.15,1.28l.27,12.17a1.34,1.34,0,0,0,2.68,0q-.13-6.08-.27-12.17a1.26,1.26,0,0,0-1.06-1.26,1.36,1.36,0,0,0,.8-.36,1,1,0,0,0,1.38.42c5.45-2.3,10.22-5.67,12.5-11.3C575.56,562.43,574.67,556.93,573,552.24ZM557.45,576a1.51,1.51,0,0,0-.27-.15c-5.15-2.17-9.74-5.64-11.2-11.26a15.89,15.89,0,0,1-.25-6.23l11.72,11.72Zm0-9.7-11.06-11.06a35.53,35.53,0,0,1,1.53-4.33,50.18,50.18,0,0,1,2.37-4.81l7.16,7.16Zm0-16.82-5.75-5.75a55.59,55.59,0,0,1,5.75-7.65Zm2.68-13.42a54.86,54.86,0,0,1,5.75,7.69l-5.75,5.75Zm0,17.23,7.16-7.16c.87,1.57,1.68,3.17,2.39,4.79a31,31,0,0,1,1.54,4.33l-11.08,11.08Zm11.6,10.85c-1.13,5.84-6.12,9.54-11.31,11.72a1.49,1.49,0,0,0-.29.17v-5.91l11.72-11.72A17.91,17.91,0,0,1,571.73,564.17Z"/><path class="cls-1" d="M537.1,376.35a1.12,1.12,0,0,0-1.12,1.12v4a1.12,1.12,0,0,0,2.25,0v-4A1.12,1.12,0,0,0,537.1,376.35Z"/><path class="cls-1" d="M537.1,368.45a1.12,1.12,0,0,0-1.12,1.12v4a1.12,1.12,0,0,0,2.25,0v-4A1.12,1.12,0,0,0,537.1,368.45Z"/><path class="cls-1" d="M537.1,384.26a1.12,1.12,0,0,0-1.12,1.12v4a1.12,1.12,0,0,0,2.25,0v-4A1.12,1.12,0,0,0,537.1,384.26Z"/><path class="cls-1" d="M537.1,344.74a1.12,1.12,0,0,0-1.12,1.12v4a1.12,1.12,0,0,0,2.25,0v-4A1.12,1.12,0,0,0,537.1,344.74Z"/><path class="cls-1" d="M537.1,360.54a1.12,1.12,0,0,0-1.12,1.12v4a1.12,1.12,0,0,0,2.25,0v-4A1.12,1.12,0,0,0,537.1,360.54Z"/><path class="cls-1" d="M537.1,392.16a1.12,1.12,0,0,0-1.12,1.12v4a1.12,1.12,0,0,0,2.25,0v-4A1.12,1.12,0,0,0,537.1,392.16Z"/><path class="cls-1" d="M537.1,352.64a1.12,1.12,0,0,0-1.12,1.12v4a1.12,1.12,0,0,0,2.25,0v-4A1.12,1.12,0,0,0,537.1,352.64Z"/><path class="cls-1" d="M537.1,423.77A1.12,1.12,0,0,0,536,424.9v4a1.12,1.12,0,0,0,2.25,0v-4A1.12,1.12,0,0,0,537.1,423.77Z"/><path class="cls-1" d="M537.1,447.48a1.12,1.12,0,0,0-1.12,1.12v4a1.12,1.12,0,0,0,2.25,0v-4A1.12,1.12,0,0,0,537.1,447.48Z"/><path class="cls-1" d="M537.1,400.06a1.12,1.12,0,0,0-1.12,1.12v4a1.12,1.12,0,0,0,2.25,0v-4A1.12,1.12,0,0,0,537.1,400.06Z"/><path class="cls-1" d="M537.1,455.39a1.12,1.12,0,0,0-1.12,1.12v4a1.12,1.12,0,0,0,2.25,0v-4A1.12,1.12,0,0,0,537.1,455.39Z"/><path class="cls-1" d="M537.1,439.58A1.12,1.12,0,0,0,536,440.7v4a1.12,1.12,0,0,0,2.25,0v-4A1.12,1.12,0,0,0,537.1,439.58Z"/><path class="cls-1" d="M537.1,408a1.12,1.12,0,0,0-1.12,1.12v4a1.12,1.12,0,0,0,2.25,0v-4A1.12,1.12,0,0,0,537.1,408Z"/><path class="cls-1" d="M537.1,431.68A1.12,1.12,0,0,0,536,432.8v4a1.12,1.12,0,0,0,2.25,0v-4A1.12,1.12,0,0,0,537.1,431.68Z"/><path class="cls-1" d="M537.1,415.87A1.12,1.12,0,0,0,536,417v4a1.12,1.12,0,0,0,2.25,0v-4A1.12,1.12,0,0,0,537.1,415.87Z"/><path class="cls-1" d="M537.1,336.83A1.12,1.12,0,0,0,536,338v4a1.12,1.12,0,0,0,2.25,0v-4A1.12,1.12,0,0,0,537.1,336.83Z"/><path class="cls-1" d="M537.1,273.6a1.12,1.12,0,0,0-1.12,1.12v4a1.12,1.12,0,0,0,2.25,0v-4A1.12,1.12,0,0,0,537.1,273.6Z"/><path class="cls-1" d="M537.1,281.51a1.12,1.12,0,0,0-1.12,1.12v4a1.12,1.12,0,0,0,2.25,0v-4A1.12,1.12,0,0,0,537.1,281.51Z"/><path class="cls-1" d="M537.1,289.41a1.12,1.12,0,0,0-1.12,1.12v4a1.12,1.12,0,0,0,2.25,0v-4A1.12,1.12,0,0,0,537.1,289.41Z"/><path class="cls-1" d="M537.1,328.93a1.12,1.12,0,0,0-1.12,1.12v4a1.12,1.12,0,0,0,2.25,0v-4A1.12,1.12,0,0,0,537.1,328.93Z"/><path class="cls-1" d="M537.1,265.7a1.12,1.12,0,0,0-1.12,1.12v4a1.12,1.12,0,0,0,2.25,0v-4A1.12,1.12,0,0,0,537.1,265.7Z"/><path class="cls-1" d="M537.1,321a1.12,1.12,0,0,0-1.12,1.12v4a1.12,1.12,0,0,0,2.25,0v-4A1.12,1.12,0,0,0,537.1,321Z"/><path class="cls-1" d="M537.1,297.32a1.12,1.12,0,0,0-1.12,1.12v4a1.12,1.12,0,0,0,2.25,0v-4A1.12,1.12,0,0,0,537.1,297.32Z"/><path class="cls-1" d="M537.1,313.12a1.12,1.12,0,0,0-1.12,1.12v4a1.12,1.12,0,0,0,2.25,0v-4A1.12,1.12,0,0,0,537.1,313.12Z"/><path class="cls-1" d="M537.1,305.22a1.12,1.12,0,0,0-1.12,1.12v4a1.12,1.12,0,0,0,2.25,0v-4A1.12,1.12,0,0,0,537.1,305.22Z"/><path class="cls-1" d="M537.1,257.8a1.12,1.12,0,0,0-1.12,1.12v4a1.12,1.12,0,0,0,2.25,0v-4A1.12,1.12,0,0,0,537.1,257.8Z"/><path class="cls-1" d="M537.1,249.9A1.12,1.12,0,0,0,536,251v4a1.12,1.12,0,1,0,2.25,0v-4A1.12,1.12,0,0,0,537.1,249.9Z"/><path class="cls-1" d="M537.1,242a1.12,1.12,0,0,0-1.12,1.12v4a1.12,1.12,0,0,0,2.25,0v-4A1.12,1.12,0,0,0,537.1,242Z"/><path class="cls-1" d="M537.1,234.09a1.12,1.12,0,0,0-1.12,1.12v4a1.12,1.12,0,0,0,2.25,0v-4A1.12,1.12,0,0,0,537.1,234.09Z"/><path class="cls-1" d="M537.1,226.19a1.12,1.12,0,0,0-1.12,1.12v4a1.12,1.12,0,0,0,2.25,0v-4A1.12,1.12,0,0,0,537.1,226.19Z"/><path class="cls-1" d="M537.1,218.28a1.12,1.12,0,0,0-1.12,1.12v4a1.12,1.12,0,1,0,2.25,0v-4A1.12,1.12,0,0,0,537.1,218.28Z"/><path class="cls-3" d="M361.11,1.19H300.83a2.38,2.38,0,0,0-2.38,2.38V48.52a2.38,2.38,0,0,0,2.38,2.38h20.82l7.64,7.64a2.38,2.38,0,0,0,3.37,0l7.64-7.64h20.82a2.38,2.38,0,0,0,2.38-2.38V3.57A2.38,2.38,0,0,0,361.11,1.19Z"/><path d="M331,60.43a3.55,3.55,0,0,1-2.53-1l-7.29-7.29H300.83a3.58,3.58,0,0,1-3.57-3.57V3.57A3.58,3.58,0,0,1,300.83,0h60.28a3.58,3.58,0,0,1,3.57,3.57V48.52a3.58,3.58,0,0,1-3.57,3.57H340.78l-7.29,7.29A3.55,3.55,0,0,1,331,60.43Zm-30.14-58a1.19,1.19,0,0,0-1.19,1.19V48.52a1.19,1.19,0,0,0,1.19,1.19h21.31l8,8a1.22,1.22,0,0,0,1.68,0l8-8h21.31a1.19,1.19,0,0,0,1.19-1.19V3.57a1.19,1.19,0,0,0-1.19-1.19Z"/><polygon class="cls-4" points="330.97 13.22 334.82 22.24 344.6 23.12 337.21 29.58 339.39 39.15 330.97 34.12 322.54 39.15 324.72 29.58 317.33 23.12 327.11 22.24 330.97 13.22"/><path class="cls-5" d="M239.43,79.93H179.15a2.38,2.38,0,0,0-2.38,2.38v44.95a2.38,2.38,0,0,0,2.38,2.38H200l7.64,7.64a2.38,2.38,0,0,0,3.37,0l7.64-7.64h20.82a2.38,2.38,0,0,0,2.38-2.38V82.31A2.38,2.38,0,0,0,239.43,79.93Z"/><path d="M209.29,139.17a3.55,3.55,0,0,1-2.53-1l-7.29-7.29H179.15a3.58,3.58,0,0,1-3.57-3.57V82.31a3.58,3.58,0,0,1,3.57-3.57h60.28A3.58,3.58,0,0,1,243,82.31v44.95a3.58,3.58,0,0,1-3.57,3.57H219.1l-7.29,7.29A3.55,3.55,0,0,1,209.29,139.17Zm-30.14-58A1.19,1.19,0,0,0,178,82.31v44.95a1.19,1.19,0,0,0,1.19,1.19h21.31l8,8a1.22,1.22,0,0,0,1.68,0l8-8h21.31a1.19,1.19,0,0,0,1.19-1.19V82.31a1.19,1.19,0,0,0-1.19-1.19Z"/><path class="cls-4" d="M222.14,110.69c0-6-4.62-7.87-8.65-8.87-5.12-1.26-6.12-2.22-6.12-3.47a1.68,1.68,0,0,1,1.85-1.64c1.39,0,2.22.85,2.61,2.67l.06.26h9.6l-.05-.38c-.71-4.9-4.36-8.14-9.71-8.76V87.07h-4.81v3.51c-5.74.81-9.31,4.09-9.31,8.83,0,4.45,2.7,7.15,8.5,8.52,4.63,1.07,6.27,2,6.27,3.47s-2,1.74-2.55,1.74a3.92,3.92,0,0,1-3.73-3.19l-.06-.25h-9.58l0,.37c.6,5.18,4.35,8.43,10.42,9.21v3.49h4.81v-3.39C218.19,118.88,222.14,115.65,222.14,110.69Z"/><path class="cls-6" d="M567.27,150.48H506.94a2.38,2.38,0,0,0-2.38,2.38v45a2.38,2.38,0,0,0,2.38,2.38h20.84l7.64,7.64a2.38,2.38,0,0,0,3.37,0l7.64-7.64h20.84a2.38,2.38,0,0,0,2.38-2.38v-45A2.38,2.38,0,0,0,567.27,150.48Z"/><path d="M537.11,209.77a3.55,3.55,0,0,1-2.53-1l-7.3-7.3H506.94a3.58,3.58,0,0,1-3.57-3.57v-45a3.58,3.58,0,0,1,3.57-3.57h60.33a3.58,3.58,0,0,1,3.57,3.57v45a3.58,3.58,0,0,1-3.57,3.57H546.93l-7.29,7.3A3.55,3.55,0,0,1,537.11,209.77Zm-30.17-58.1a1.19,1.19,0,0,0-1.19,1.19v45a1.19,1.19,0,0,0,1.19,1.19h21.33l8,8a1.22,1.22,0,0,0,1.69,0l8-8h21.33a1.19,1.19,0,0,0,1.19-1.19v-45a1.19,1.19,0,0,0-1.19-1.19Z"/><path class="cls-4" d="M537.11,157.63c-4.93,0-5.8,4.92-5.8,8.05s2.81,14.78,5.8,14.78,5.8-11.64,5.8-14.78S542,157.63,537.11,157.63Z"/><circle class="cls-4" cx="537.11" cy="187.82" r="5.54"/><rect class="cls-7" x="502.86" y="145.28" width="68.49" height="68.49"/></g></g></svg>