<svg xmlns="http://www.w3.org/2000/svg" viewBox="0 0 1920.21 980"><defs><style>.cls-1{opacity:0.3;}.cls-2{fill:#eff0f0;}.cls-3{fill:none;}</style></defs><title>map_background</title><g id="Layer_2" data-name="Layer 2"><g id="Login"><g class="cls-1"><polygon class="cls-2" points="249.78 150.51 229.74 143.43 199.45 210.45 219.49 217.53 249.78 150.51"/><polygon class="cls-2" points="262.88 240.01 231.51 228.93 218.98 256.66 250.34 267.75 262.88 240.01"/><polygon class="cls-2" points="307.45 132.47 287.41 125.39 258.86 188.56 278.9 195.64 307.45 132.47"/><polygon class="cls-2" points="279.46 59.15 322.16 74.24 329.82 57.29 287.13 42.2 279.46 59.15"/><polygon class="cls-2" points="212.73 0 192.4 0 209.93 6.2 212.73 0"/><polygon class="cls-2" points="182.31 24.82 225.88 40.22 233.54 23.27 189.97 7.87 182.31 24.82"/><polygon class="cls-2" points="176.75 68.42 162.12 100.78 186.52 109.4 201.15 77.04 176.75 68.42"/><polygon class="cls-2" points="332.43 192.9 346.8 161.12 336.12 157.35 321.76 189.12 332.43 192.9"/><polygon class="cls-2" points="387.69 132.69 358.18 122.26 350.86 138.43 380.38 148.86 387.69 132.69"/><polygon class="cls-2" points="411.11 61.89 400.65 58.2 379.75 104.42 390.21 108.11 411.11 61.89"/><polygon class="cls-2" points="426.96 207.87 432.23 196.22 401.52 185.37 396.25 197.02 426.96 207.87"/><polygon class="cls-2" points="453.6 130.51 439.88 125.66 422.64 163.8 436.36 168.65 453.6 130.51"/><polygon class="cls-2" points="311.16 226.25 303.33 243.59 329.36 252.78 337.19 235.45 311.16 226.25"/><polygon class="cls-2" points="280.87 293.27 295.62 298.49 312.34 261.51 297.58 256.3 280.87 293.27"/><polygon class="cls-2" points="330.29 296 363.94 307.89 370.21 294.02 336.56 282.13 330.29 296"/><polygon class="cls-2" points="374.44 245.26 366.87 262.02 402.81 274.72 410.38 257.96 374.44 245.26"/><polygon class="cls-2" points="486.47 351.19 508.54 302.36 491.55 296.36 469.48 345.18 486.47 351.19"/><polygon class="cls-2" points="542.2 248.59 525.64 242.74 515.59 264.99 532.14 270.83 542.2 248.59"/><polygon class="cls-2" points="617.35 158.89 579.45 145.5 575.62 153.97 613.52 167.37 617.35 158.89"/><polygon class="cls-2" points="597.52 104.98 609.06 109.06 635.18 51.28 623.63 47.2 597.52 104.98"/><polygon class="cls-2" points="196.9 508.93 214.76 515.24 236.2 467.8 218.34 461.48 196.9 508.93"/><polygon class="cls-2" points="248.04 499.49 293.88 515.69 304.6 491.97 258.76 475.77 248.04 499.49"/><polygon class="cls-2" points="362.87 379.21 351.35 375.14 326.37 430.41 337.89 434.48 362.87 379.21"/><polygon class="cls-2" points="501.65 406.13 453.42 389.09 442.19 413.94 490.42 430.98 501.65 406.13"/><polygon class="cls-2" points="542.62 420.61 518.77 412.18 509.24 433.27 533.09 441.7 542.62 420.61"/><polygon class="cls-2" points="503.54 477.16 458.67 461.3 448.75 483.26 493.62 499.11 503.54 477.16"/><polygon class="cls-2" points="377.28 549.13 390.35 553.75 417.78 493.09 404.71 488.47 377.28 549.13"/><polygon class="cls-2" points="390.51 625.5 352.6 612.11 346.07 626.55 383.98 639.95 390.51 625.5"/><polygon class="cls-2" points="326.75 669.31 374.98 686.35 383.33 667.86 335.11 650.82 326.75 669.31"/><polygon class="cls-2" points="295.67 738.06 329.65 750.07 345.06 715.98 311.08 703.97 295.67 738.06"/><polygon class="cls-2" points="415.95 700.83 442.2 710.1 452.69 686.9 426.44 677.62 415.95 700.83"/><polygon class="cls-2" points="493.11 670.13 446.6 653.7 443.33 660.92 489.84 677.36 493.11 670.13"/><polygon class="cls-2" points="431.59 746.56 410.69 792.78 424.8 797.76 445.69 751.54 431.59 746.56"/><polygon class="cls-2" points="384.87 769.58 397.99 774.22 407.13 754 394.01 749.36 384.87 769.58"/><polygon class="cls-2" points="114.65 679.9 140.71 689.11 158.38 650.02 132.32 640.81 114.65 679.9"/><polygon class="cls-2" points="158.81 582.2 147.99 606.14 175.07 615.71 185.89 591.77 158.81 582.2"/><polygon class="cls-2" points="249.35 614.19 230.07 607.38 203.58 665.99 222.85 672.8 249.35 614.19"/><polygon class="cls-2" points="74.82 615.8 31.07 600.34 21.54 621.43 65.28 636.89 74.82 615.8"/><polygon class="cls-2" points="0 694.68 0 726.95 7.03 729.43 33.5 670.88 13.89 663.96 0 694.68"/><polygon class="cls-2" points="137.28 748.65 60.39 721.48 55.16 733.04 132.06 760.21 137.28 748.65"/><polygon class="cls-2" points="272.21 815.1 324.05 833.42 334.15 811.07 282.31 792.75 272.21 815.1"/><polygon class="cls-2" points="369.78 836.62 346.97 887.08 372.21 896 395.02 845.54 369.78 836.62"/><polygon class="cls-2" points="242.56 868.94 224.11 909.77 252.86 919.93 271.32 879.1 242.56 868.94"/><polygon class="cls-2" points="297.36 980 339.21 980 347.05 962.67 310.96 949.91 297.36 980"/><polygon class="cls-2" points="95.67 840.71 130.25 852.93 138.08 835.6 103.5 823.38 95.67 840.71"/><polygon class="cls-2" points="31.24 831.79 51.82 839.07 70.28 798.24 49.7 790.96 31.24 831.79"/><polygon class="cls-2" points="483.5 889.76 490.82 873.58 462.94 863.73 455.62 879.91 483.5 889.76"/><polygon class="cls-2" points="486.88 819.7 506.05 826.48 529.82 773.9 510.65 767.13 486.88 819.7"/><polygon class="cls-2" points="582.26 762.95 594.06 736.85 543.52 718.99 531.73 745.09 582.26 762.95"/><polygon class="cls-2" points="546.03 811.79 562.59 817.64 575.13 789.91 558.57 784.06 546.03 811.79"/><polygon class="cls-2" points="664.68 0 641.51 0 661.49 7.06 664.68 0"/><polygon class="cls-2" points="731.98 10.58 736.76 0 716.93 0 714.88 4.54 731.98 10.58"/><polygon class="cls-2" points="578.21 375.56 591.33 380.2 610.27 338.31 597.14 333.67 578.21 375.56"/><polygon class="cls-2" points="553.29 483.35 561.79 486.35 580 446.05 571.51 443.05 553.29 483.35"/><polygon class="cls-2" points="631.89 320.38 642.49 296.93 612.64 286.38 602.04 309.83 631.89 320.38"/><polygon class="cls-2" points="631.38 244.93 643.01 249.04 656.33 219.57 644.7 215.46 631.38 244.93"/><polygon class="cls-2" points="675.26 147.86 659.15 183.49 684.75 192.54 700.86 156.91 675.26 147.86"/><polygon class="cls-2" points="684.27 76.67 666.46 70.38 647.83 111.59 665.64 117.89 684.27 76.67"/><polygon class="cls-2" points="686.86 112.43 724.76 125.82 730.51 113.11 692.61 99.72 686.86 112.43"/><polygon class="cls-2" points="700.83 53.04 749.84 70.36 754.28 60.54 705.26 43.22 700.83 53.04"/><polygon class="cls-2" points="144.69 202.02 116.48 143.89 89.16 154.25 117.36 212.38 144.69 202.02"/><polygon class="cls-2" points="860.56 283.4 840.52 276.32 810.23 343.34 830.27 350.42 860.56 283.4"/><polygon class="cls-2" points="873.66 372.9 842.29 361.82 829.76 389.55 861.12 400.63 873.66 372.9"/><polygon class="cls-2" points="918.23 265.36 898.19 258.28 869.64 321.45 889.68 328.53 918.23 265.36"/><polygon class="cls-2" points="932.94 207.13 940.6 190.18 897.9 175.09 890.24 192.04 932.94 207.13"/><polygon class="cls-2" points="831.93 114.26 811.68 107.1 800.45 131.92 820.71 139.08 831.93 114.26"/><polygon class="cls-2" points="793.09 157.71 836.66 173.1 844.32 156.16 800.75 140.76 793.09 157.71"/><polygon class="cls-2" points="787.53 201.31 772.9 233.66 797.3 242.28 811.93 209.93 787.53 201.31"/><polygon class="cls-2" points="835.93 62.95 852.48 68.81 870.94 27.98 854.38 22.13 835.93 62.95"/><polygon class="cls-2" points="889.05 81.73 898.28 61.31 875.19 53.15 865.96 73.57 889.05 81.73"/><polygon class="cls-2" points="930.99 101.91 983.7 120.53 990.41 105.7 937.69 87.08 930.99 101.91"/><polygon class="cls-2" points="973.05 43.51 989.76 6.53 976.26 1.76 959.54 38.74 973.05 43.51"/><polygon class="cls-2" points="1007.73 76.31 1018.88 51.66 999.71 44.89 988.57 69.54 1007.73 76.31"/><polygon class="cls-2" points="943.21 325.78 957.58 294 946.9 290.23 932.54 322.01 943.21 325.78"/><polygon class="cls-2" points="998.47 265.57 968.96 255.14 961.64 271.32 991.16 281.75 998.47 265.57"/><polygon class="cls-2" points="1021.88 194.78 1011.43 191.08 990.53 237.31 1000.99 241 1021.88 194.78"/><polygon class="cls-2" points="1037.74 340.76 1043.01 329.11 1012.3 318.25 1007.03 329.91 1037.74 340.76"/><polygon class="cls-2" points="1064.38 263.4 1050.66 258.55 1033.42 296.68 1047.14 301.53 1064.38 263.4"/><polygon class="cls-2" points="921.94 359.14 914.11 376.47 940.14 385.67 947.97 368.34 921.94 359.14"/><polygon class="cls-2" points="891.65 426.16 906.4 431.38 923.12 394.4 908.36 389.18 891.65 426.16"/><polygon class="cls-2" points="941.07 428.88 974.72 440.78 980.99 426.91 947.34 415.02 941.07 428.88"/><polygon class="cls-2" points="985.22 378.15 977.65 394.9 1013.59 407.61 1021.16 390.85 985.22 378.15"/><polygon class="cls-2" points="1097.25 484.07 1119.32 435.25 1102.33 429.25 1080.26 478.07 1097.25 484.07"/><polygon class="cls-2" points="1152.98 381.48 1136.42 375.63 1126.37 397.87 1142.92 403.72 1152.98 381.48"/><polygon class="cls-2" points="1228.13 291.78 1190.23 278.39 1186.4 286.86 1224.3 300.25 1228.13 291.78"/><polygon class="cls-2" points="1208.3 237.87 1219.84 241.95 1245.96 184.17 1234.41 180.09 1208.3 237.87"/><polygon class="cls-2" points="807.67 641.82 825.54 648.13 846.98 600.68 829.12 594.37 807.67 641.82"/><polygon class="cls-2" points="869.54 608.65 858.82 632.38 904.66 648.58 915.38 624.85 869.54 608.65"/><polygon class="cls-2" points="973.65 512.1 962.13 508.02 937.15 563.3 948.67 567.37 973.65 512.1"/><polygon class="cls-2" points="1052.97 546.82 1101.2 563.87 1112.43 539.02 1064.2 521.98 1052.97 546.82"/><polygon class="cls-2" points="1129.55 545.07 1120.02 566.16 1143.87 574.59 1153.4 553.5 1129.55 545.07"/><polygon class="cls-2" points="1114.32 610.05 1069.45 594.19 1059.53 616.14 1104.4 632 1114.32 610.05"/><polygon class="cls-2" points="988.06 682.02 1001.13 686.64 1028.56 625.97 1015.49 621.36 988.06 682.02"/><polygon class="cls-2" points="1001.29 758.39 963.38 745 956.85 759.44 994.76 772.83 1001.29 758.39"/><polygon class="cls-2" points="985.76 819.24 994.11 800.75 945.88 783.71 937.53 802.19 985.76 819.24"/><polygon class="cls-2" points="906.45 870.95 940.43 882.96 955.84 848.87 921.86 836.86 906.45 870.95"/><polygon class="cls-2" points="1026.73 833.72 1052.98 842.99 1063.47 819.78 1037.22 810.51 1026.73 833.72"/><polygon class="cls-2" points="1103.89 803.02 1057.38 786.58 1054.11 793.81 1100.62 810.24 1103.89 803.02"/><polygon class="cls-2" points="1056.47 884.43 1042.37 879.45 1021.47 925.67 1035.58 930.65 1056.47 884.43"/><polygon class="cls-2" points="995.65 902.47 1008.77 907.11 1017.91 886.88 1004.79 882.25 995.65 902.47"/><polygon class="cls-2" points="882.99 947.99 934.83 966.31 944.93 943.96 893.09 925.64 882.99 947.99"/><polygon class="cls-2" points="975.82 980 1005.09 980 1005.8 978.43 980.56 969.51 975.82 980"/><polygon class="cls-2" points="1116.83 959.36 1140.6 906.78 1121.43 900.01 1097.66 952.59 1116.83 959.36"/><polygon class="cls-2" points="1204.84 869.74 1154.3 851.88 1142.51 877.98 1193.04 895.83 1204.84 869.74"/><polygon class="cls-2" points="1156.81 944.68 1173.37 950.53 1185.9 922.79 1169.35 916.95 1156.81 944.68"/><polygon class="cls-2" points="1245.26 130.4 1272.27 139.94 1295.77 87.94 1268.76 78.4 1245.26 130.4"/><polygon class="cls-2" points="1362.75 77.5 1371.11 59.02 1303.14 35 1294.79 53.49 1362.75 77.5"/><polygon class="cls-2" points="1332.49 122.31 1325.66 137.43 1342.76 143.47 1349.59 128.35 1332.49 122.31"/><polygon class="cls-2" points="1186.73 762.27 1198.49 766.43 1214.68 730.61 1202.92 726.46 1186.73 762.27"/><polygon class="cls-2" points="1243.93 655.85 1308.41 678.63 1322.42 647.62 1257.95 624.84 1243.93 655.85"/><polygon class="cls-2" points="1216.67 696.02 1240.42 704.41 1249.91 683.42 1226.16 675.03 1216.67 696.02"/><polygon class="cls-2" points="1354.13 624.43 1325.38 614.27 1322.42 620.82 1351.17 630.98 1354.13 624.43"/><polygon class="cls-2" points="1286.9 717.26 1262.51 771.22 1287.56 780.07 1311.95 726.12 1286.9 717.26"/><polygon class="cls-2" points="1188.99 508.45 1202.11 513.09 1221.05 471.2 1207.92 466.56 1188.99 508.45"/><polygon class="cls-2" points="1182.29 575.93 1164.07 616.23 1172.57 619.24 1190.78 578.94 1182.29 575.93"/><polygon class="cls-2" points="1242.67 453.26 1253.27 429.82 1223.42 419.27 1212.82 442.72 1242.67 453.26"/><polygon class="cls-2" points="1242.16 377.81 1253.79 381.93 1267.11 352.46 1255.48 348.35 1242.16 377.81"/><polygon class="cls-2" points="1269.93 316.38 1295.53 325.43 1311.64 289.8 1286.04 280.75 1269.93 316.38"/><polygon class="cls-2" points="1295.05 209.56 1277.24 203.26 1258.61 244.48 1276.42 250.77 1295.05 209.56"/><polygon class="cls-2" points="1297.64 245.32 1335.54 258.71 1341.29 246 1303.39 232.61 1297.64 245.32"/><polygon class="cls-2" points="1311.61 185.93 1360.62 203.25 1365.06 193.42 1316.05 176.1 1311.61 185.93"/><polygon class="cls-2" points="728.14 345.27 755.47 334.91 727.26 276.77 699.94 287.14 728.14 345.27"/><polygon class="cls-2" points="1410.28 308.01 1297.64 553.22 1436.94 603.49 1483.81 501.52 1410.28 308.01"/><polygon class="cls-2" points="1530.56 283.4 1510.52 276.32 1480.22 343.34 1500.26 350.42 1530.56 283.4"/><polygon class="cls-2" points="1543.66 372.9 1512.29 361.82 1499.75 389.55 1531.12 400.63 1543.66 372.9"/><polygon class="cls-2" points="1588.23 265.36 1568.19 258.28 1539.63 321.45 1559.67 328.53 1588.23 265.36"/><polygon class="cls-2" points="1602.93 207.13 1610.6 190.18 1567.9 175.09 1560.24 192.04 1602.93 207.13"/><polygon class="cls-2" points="1501.93 114.26 1481.67 107.1 1470.45 131.92 1490.71 139.08 1501.93 114.26"/><polygon class="cls-2" points="1463.09 157.71 1506.65 173.1 1514.32 156.16 1470.75 140.76 1463.09 157.71"/><polygon class="cls-2" points="1457.53 201.31 1442.9 233.66 1467.3 242.28 1481.92 209.93 1457.53 201.31"/><polygon class="cls-2" points="1505.92 62.95 1522.48 68.81 1540.93 27.98 1524.38 22.13 1505.92 62.95"/><polygon class="cls-2" points="1559.05 81.73 1568.27 61.31 1545.18 53.15 1535.96 73.57 1559.05 81.73"/><polygon class="cls-2" points="1600.98 101.91 1653.7 120.53 1660.4 105.7 1607.69 87.08 1600.98 101.91"/><polygon class="cls-2" points="1643.05 43.51 1659.76 6.53 1646.26 1.76 1629.54 38.74 1643.05 43.51"/><polygon class="cls-2" points="1677.73 76.31 1688.88 51.66 1669.71 44.89 1658.56 69.54 1677.73 76.31"/><polygon class="cls-2" points="1613.21 325.78 1627.57 294 1616.9 290.23 1602.54 322.01 1613.21 325.78"/><polygon class="cls-2" points="1668.47 265.57 1638.95 255.14 1631.64 271.32 1661.16 281.75 1668.47 265.57"/><polygon class="cls-2" points="1691.88 194.78 1681.43 191.08 1660.53 237.31 1670.99 241 1691.88 194.78"/><polygon class="cls-2" points="1707.74 340.76 1713.01 329.11 1682.29 318.25 1677.03 329.91 1707.74 340.76"/><polygon class="cls-2" points="1734.38 263.4 1720.65 258.55 1703.41 296.68 1717.14 301.53 1734.38 263.4"/><polygon class="cls-2" points="1591.94 359.14 1584.11 376.47 1610.14 385.67 1617.97 368.34 1591.94 359.14"/><polygon class="cls-2" points="1561.64 426.16 1576.4 431.38 1593.12 394.4 1578.36 389.18 1561.64 426.16"/><polygon class="cls-2" points="1611.06 428.88 1644.72 440.78 1650.99 426.91 1617.33 415.02 1611.06 428.88"/><polygon class="cls-2" points="1655.22 378.15 1647.64 394.9 1683.59 407.61 1691.16 390.85 1655.22 378.15"/><polygon class="cls-2" points="1767.25 484.07 1789.32 435.25 1772.33 429.25 1750.26 478.07 1767.25 484.07"/><polygon class="cls-2" points="1822.97 381.48 1806.42 375.63 1796.36 397.87 1812.92 403.72 1822.97 381.48"/><polygon class="cls-2" points="1894.3 300.25 1898.13 291.78 1860.23 278.39 1856.4 286.86 1894.3 300.25"/><polygon class="cls-2" points="1878.29 237.87 1889.84 241.95 1915.96 184.17 1904.41 180.09 1878.29 237.87"/><polygon class="cls-2" points="1477.67 641.82 1495.53 648.13 1516.98 600.68 1499.12 594.37 1477.67 641.82"/><polygon class="cls-2" points="1539.54 608.65 1528.82 632.38 1574.66 648.58 1585.38 624.85 1539.54 608.65"/><polygon class="cls-2" points="1643.65 512.1 1632.13 508.02 1607.14 563.3 1618.66 567.37 1643.65 512.1"/><polygon class="cls-2" points="1782.43 539.02 1734.2 521.98 1722.97 546.82 1771.19 563.87 1782.43 539.02"/><polygon class="cls-2" points="1823.4 553.5 1799.55 545.07 1790.01 566.16 1813.87 574.59 1823.4 553.5"/><polygon class="cls-2" points="1784.32 610.05 1739.45 594.19 1729.52 616.14 1774.39 632 1784.32 610.05"/><polygon class="cls-2" points="1658.06 682.02 1671.13 686.64 1698.55 625.97 1685.48 621.36 1658.06 682.02"/><polygon class="cls-2" points="1671.28 758.39 1633.38 745 1626.85 759.44 1664.75 772.83 1671.28 758.39"/><polygon class="cls-2" points="1607.52 802.19 1655.75 819.24 1664.11 800.75 1615.88 783.71 1607.52 802.19"/><polygon class="cls-2" points="1576.44 870.95 1610.42 882.96 1625.83 848.87 1591.85 836.86 1576.44 870.95"/><polygon class="cls-2" points="1696.72 833.72 1722.97 842.99 1733.46 819.78 1707.22 810.51 1696.72 833.72"/><polygon class="cls-2" points="1773.88 803.02 1727.37 786.58 1724.11 793.81 1770.62 810.24 1773.88 803.02"/><polygon class="cls-2" points="1726.47 884.43 1712.36 879.45 1691.47 925.67 1705.58 930.65 1726.47 884.43"/><polygon class="cls-2" points="1665.64 902.47 1678.77 907.11 1687.91 886.88 1674.79 882.25 1665.64 902.47"/><polygon class="cls-2" points="1395.42 812.79 1421.48 822 1439.15 782.9 1413.1 773.7 1395.42 812.79"/><polygon class="cls-2" points="1439.59 715.09 1428.77 739.03 1455.85 748.6 1466.67 724.66 1439.59 715.09"/><polygon class="cls-2" points="1510.85 740.27 1484.36 798.88 1503.63 805.69 1530.13 747.08 1510.85 740.27"/><polygon class="cls-2" points="1552.98 947.99 1604.83 966.31 1614.93 943.96 1563.09 925.64 1552.98 947.99"/><polygon class="cls-2" points="1645.82 980 1675.09 980 1675.8 978.43 1650.56 969.51 1645.82 980"/><polygon class="cls-2" points="1376.44 973.6 1394.56 980 1413.65 980 1418.86 968.49 1384.28 956.26 1376.44 973.6"/><polygon class="cls-2" points="1312.02 964.68 1332.6 971.95 1351.06 931.12 1330.47 923.85 1312.02 964.68"/><polygon class="cls-2" points="1786.83 959.36 1810.59 906.78 1791.42 900.01 1767.66 952.59 1786.83 959.36"/><polygon class="cls-2" points="1874.84 869.74 1824.3 851.88 1812.5 877.98 1863.04 895.83 1874.84 869.74"/><polygon class="cls-2" points="1826.81 944.68 1843.37 950.53 1855.9 922.79 1839.35 916.95 1826.81 944.68"/><polygon class="cls-2" points="1920.21 132.15 1920.21 119.44 1915.25 130.4 1920.21 132.15"/><polygon class="cls-2" points="1856.72 762.27 1868.48 766.43 1884.68 730.61 1872.91 726.46 1856.72 762.27"/><polygon class="cls-2" points="1920.21 658.06 1920.21 641.95 1913.93 655.85 1920.21 658.06"/><polygon class="cls-2" points="1886.67 696.02 1910.41 704.41 1919.9 683.42 1896.16 675.03 1886.67 696.02"/><polygon class="cls-2" points="1858.98 508.45 1872.11 513.09 1891.04 471.2 1877.92 466.56 1858.98 508.45"/><polygon class="cls-2" points="1842.56 619.24 1860.78 578.94 1852.29 575.93 1834.07 616.23 1842.56 619.24"/><polygon class="cls-2" points="1882.82 442.72 1912.67 453.26 1920.21 436.58 1920.21 428.74 1893.42 419.27 1882.82 442.72"/><polygon class="cls-2" points="1920.21 380.66 1920.21 360.01 1912.16 377.81 1920.21 380.66"/><polygon class="cls-2" points="1873.24 980 1920.21 876.1 1920.21 849.28 1861.12 980 1873.24 980"/><path class="cls-2" d="M1888.81,0,1782.61,234.94l-48.27-69.83-61-21.55L1738.25,0h-12.13L1662.9,139.87l-89.75-31.71L1622,0h-12.13L1562.7,104.46l-84.52-29.87L1511.9,0h-24.25l-25.85,57.19-2.65-.94-88.62,196c-11.1.25-21.51,6.22-25.88,15.9l-65.3,144.44-60.12-21.24,50.15-110.93-33.54-11.85,81-179.11-10.46-3.69-81,179.11-55.76-19.71L1276.7,8.31a22.71,22.71,0,0,0,2-8.31H1256.1a4.93,4.93,0,0,1-.31.92L1135.22,267.65l-7.94-11.49L1243.07,0h-24.25L1112.61,234.94l-48.27-69.83-61-21.55L1068.25,0h-12.13L992.9,139.87l-89.75-31.71L952,0H939.92L892.7,104.46,808.18,74.59,841.9,0H817.65L723.08,209.2,824.46,487.94,664.92,531.71l52.92-117.06L663.67,262.7l-10.74,3,3.47,9.75-48-16.95L658.6,147.56l-33.54-11.85L686.4,0H674.28L614.6,132l-55.76-19.71L609.6,0H585.35L524.43,134.76l-7.94-11.49L572.22,0H548L501.83,102.06,453.56,32.22l-61-21.55L397.4,0H385.27l-3.16,7L362.37,0H301.69l72.07,25.47-33.43,74L250.58,67.71,281.19,0H269.07L240.13,64,155.61,34.15,171,0H146.8L112.3,76.31,213.68,355.05,54.14,398.82l52.92-117.06L52.89,129.81l-10.74,3,53,148.56L40.3,402.62,0,413.67v19.25l.51,1.46,85.42-23.43L0,601v26.82L21.28,580.8l82.25,29.06-38,84,2,.69-4.18,9.24,143.55,50.72-25.6,56.62L0,747v10.72l177.12,62.59L153.79,872c-5.86,13,1.3,27.71,16,32.89s31.34-1.15,37.2-14.11l23.33-51.61L313,868.39,262.59,980h12.13l24.23-53.61,82.78,29.25-11,24.36H395l32.22-71.28,78,27.56,29.77-65.87,249.63,88.21,8.36-18.49L583.82,866.24l71.74-158.69,209.12,73.89L873,763l-56.3-19.89,24-53,57.07,20.17-24.94,55.17.2.07L775.81,980h24.25l38.53-85.23,11.33,4L813.19,980h24.25l3.61-8,22.57,8H894l-48.73-17.22,25.6-56.62,176,62.19L1041.57,980h24.25l1.92-4.26,12,4.26h60.68l-64.37-22.75,71.74-158.69,108,38.18L1191.12,980h12.13l63.09-139.57,7.44,2.63-5.57,12.33,19.6,6.93,5.57-12.33,42.91,15.16-.35.77,76.89,27.17.35-.77,62.27,22,8.36-18.49L1301.74,831.5l5.89-13,35.91,12.69,5.26-11.63-35.91-12.69,1.39-3.08-19.6-6.93-12.54,27.73-59.72-21.1,49.45-109.39,85,30L1400.7,627l19.6,6.93,8.36-18.49L1274,560.82,1397.8,287c4.37-9.67,1.49-20.35-6.36-27.29l11.08-24.51,67,184.11,27.84,76.21-34,72.5h0l-73.42,162.42-22.47-7.94-11.84,26.19-43.71-15.45-9.53,21.09,43.75,15.46,4.31-9.53,22.44,7.93-26.47,58.55,2,.69-4.18,9.24,143.55,50.72L1462.08,944l-148.46-52.46-4.26,9.21,148.55,52.49L1445.8,980h24.25l38.53-85.23,11.33,4L1483.19,980h24.25l3.61-8,22.57,8H1564l-48.73-17.22,25.6-56.62,176,62.19L1711.56,980h24.25l1.92-4.26,12,4.26h60.68l-64.37-22.75,71.74-158.69,102.37,36.17V813.29l-27.8-9.82,27.8-61.49V715.16L1882,799.78l-55.76-19.7,48.22-106.67c11.09-.25,21.51-6.22,25.88-15.9l19.91-44.05v-61l-8.45-3,8.45-18.69V477.09L1890.85,542l-60.12-21.24,54.33-120.18L1920.21,413V402.33l-31-10.95,31-68.52V296L1820.27,517.1l-17.86-6.31L1870,361.33l-50.1-72.48,15.56-34.42,84.77,30V273.67l-14.37-5.08,14.37-31.8V210l-24.83,54.93-55.76-19.71,80.6-178.29V13.26l-115,254.39-7.94-11.49L1913.07,0ZM1275.18,421.87,1220.85,542l-60.12-21.24,54.33-120.18ZM1183.5,666l-5,11.15-44.87-15.86,50.15-110.93,28.75,10.16-35.35,78.19C1172.77,648.4,1175.66,659.07,1183.5,666ZM1020.37,492.64l11.33,4L938.37,703.1l-11.33-4Zm-12.55-25.88-46.4-16.4L851,480.67l62.54-138.36,129.83,45.88ZM1052.61,504l120.68,42.64L1148.73,601l-120.68-42.64ZM950.92,729l82.77,29.25L999.92,833,917.14,803.7Zm8.36-18.49,64.6-142.9,120.68,42.64-21.42,47.38L1036,626.82l-43.18,95.52Zm238.78-64.38,35.35-78.19,11.33,4-35.35,78.19a6.4,6.4,0,0,1-7.93,3C1198.34,652,1196.81,648.87,1198.06,646.11Zm-32.62-391.67L1254.75,286,1150.27,517.1l-17.86-6.31L1200,361.33l-50.1-72.48Zm-26,57.5,35.44,51.26L1111.5,503.4,1061,485.55Zm-22.61-32.7,7.94,11.49-84.73,187.43-11.33-4ZM1102.17,258l-54.66,120.92-67.09-23.71L1055.13,190ZM995,162l52.28,18.47L970,351.54l-52.28-18.47ZM894.8,126.64l89.75,31.71-33.43,74L861.36,200.6Zm-95-33.56,84.52,29.87-33.43,74L766.39,167ZM747,209.93l15.21-33.65,84.52,29.87-56,123.94Zm49.11,135,61.08-135.11,89.75,31.71-104.42,231Zm51,157.62L955,473,901,592.5l-81.47-28.79ZM660.78,287.7l45.11,126.55L651.08,535.5l-46.46,12.74,6.67,19,85.42-23.43L635.59,679l-24-8.46,6.26-13.84-10.18-4.3-6.53,14.44-55.76-19.7,48.22-106.67c11.1-.25,21.51-6.22,25.88-15.9l43.42-97.68-52.87-17.79-60.12-21.24,54.33-120.18ZM566.37,505.84c-4.37,9.67-1.48,20.35,6.36,27.29l-5,11.15-44.87-15.86L573,417.48l28.75,10.16ZM622.62,435,634,439l-35.35,78.19a6.4,6.4,0,0,1-7.93,3c-3.12-1.1-4.65-4.25-3.4-7ZM348.5,577.6l64.6-142.9,120.68,42.64-21.42,47.38-87.13-30.79L382,589.46Zm74.42,47.74-33.78,74.72-82.77-29.25,33.78-74.72ZM538,468.1,417.28,425.46l24.55-54.31L562.5,413.79ZM327.59,570.21l-11.33-4,93.33-206.45,11.33,4ZM397,333.88l-46.4-16.4-110.45,30.3,62.54-138.36L432.55,255.3Zm-41,6.94,32.67,11.55L295.35,558.82l-124.6-44,33.78-74.72,91.92,32.48ZM307.9,584.7l11.33,4L247.49,747.39l-11.33-4Zm-5.72,95.36L385,709.31,351.18,784,268.4,754.78ZM395.41,713l82.78,29.25L444.41,817l-82.78-29.25Zm4.18-9.24L433.37,629l82.78,29.25L482.37,733ZM392.5,593.15l39-86.28,81.9,28.94,50.1,17.7-39,86.28Zm162.16-471.6L644,153.11,539.49,384.22l-17.86-6.31L589.2,228.45,539.1,156Zm-26,57.5,35.44,51.26-63.38,140.2-50.54-17.86Zm-22.61-32.7L514,157.84,429.27,345.27l-11.33-4Zm-14.66-21.21L436.73,246.06l-67.09-23.71L444.35,57.08Zm-107.18-96L436.5,47.64l-77.31,171-52.28-18.47ZM136.22,77l15.21-33.65L236,73.26l-56,123.94Zm49.11,135L246.41,77l89.75,31.71-104.42,231Zm51,157.62L344.2,340.09l-54,119.52-81.47-28.79ZM25.45,571.55,99.77,407.15l108.89-29.87-101,223.34ZM90.65,692l71.74-158.69,57.07,20.17L147.73,712.14Zm67.53,23.86,71.74-158.69L287,577.31,215.25,736ZM186,883.36a6.4,6.4,0,0,1-7.93,3c-3.12-1.1-4.65-4.25-3.4-7l53.11-117.48,11.33,4Zm199.88,63-82.78-29.25,24.55-54.31-93.23-32.94L260,773.27l176,62.19Zm113-23.06-67.53-23.86L457,842.86l67.53,23.86Zm74.47-60.79-108-38.18,71.74-158.69,108,38.18ZM646,682.74,710.55,540l108.89-29.87L728.29,711.81Zm160.23,56.62L749.2,719.2l24-53,57.07,20.17Zm-24.74-91.68L815.31,573l91.92,32.48,59.55-131.73,32.67,11.55L906.13,691.71Zm76.74,232.6-11.33-4,71.74-158.69,11.33,4Zm20.91,7.39L913,812.95l82.77,29.25L962,916.92Zm176,62.19-82.78-29.25,33.78-74.72L1089,875.14Zm38-84-82.78-29.25,33.78-74.72,82.78,29.25Zm42.14-93.21-132-46.65,39-86.28,81.9,28.94,50.1,17.7Zm255-149.34-39.7,87.82-85-30L1212,799.78l-55.76-19.7,48.22-106.67c11.1-.25,21.51-6.22,25.88-15.9l35.35-78.19Zm-13.35-343.77-123.8,273.86-11.33-4,123.8-273.86a6.4,6.4,0,0,1,7.93-3C1376.61,273.67,1378.14,276.81,1376.89,279.57Zm409.94-.33,7.94,11.49-84.73,187.43-11.33-4ZM1629.28,710.49l64.6-142.9,120.68,42.64-21.42,47.38L1706,626.82l-43.18,95.52Zm74.42,47.74L1669.91,833l-82.77-29.25L1620.92,729Zm-95.33-55.13-11.33-4,93.33-206.45,11.33,4Zm69.45-236.33-46.4-16.4L1521,480.67l62.54-138.36,129.83,45.88ZM1772.17,258l-54.66,120.92-67.09-23.71L1725.13,190ZM1665,162l52.28,18.47-77.31,171-52.28-18.47Zm-100.2-35.41,89.75,31.71-33.43,74-89.75-31.71Zm-95-33.56,84.52,29.87-33.43,74L1436.39,167ZM1417,209.93l15.21-33.65,84.52,29.87-56,123.94Zm49.11,135,61.08-135.11,89.75,31.71-104.42,231Zm51,157.62L1625,473,1571,592.5l-81.47-28.79ZM1485.31,573l91.92,32.48,59.55-131.73,32.67,11.55-93.33,206.45-124.6-44ZM1371.43,824.86l71.74-158.69,57.07,20.17L1428.5,845Zm124.6,44L1439,848.72,1510.7,690l57.07,20.17Zm32.24,11.39-11.33-4,71.74-158.69,11.33,4Zm20.91,7.39L1583,812.95l82.77,29.25L1632,916.92Zm176,62.19-82.78-29.25,33.78-74.72L1759,875.14Zm38-84-82.78-29.25,33.78-74.72,82.78,29.25Zm42.14-93.21-132-46.65,39-86.28,81.9,28.94,50.1,17.7Zm98.12-204.76,11.33,4-35.35,78.19a6.4,6.4,0,0,1-7.93,3c-3.12-1.1-4.65-4.25-3.4-7Zm-20.91-7.39-35.35,78.19c-4.37,9.67-1.48,20.35,6.36,27.29l-5,11.15-44.87-15.86,50.15-110.93Zm-39.21-13.85L1818.73,601l-120.68-42.64L1722.6,504Zm-33.84-234.73,35.44,51.26L1781.5,503.4,1731,485.55Z"/></g><rect class="cls-3" x="0.05" width="1920" height="980"/></g></g></svg>