<?xml version="1.0" standalone="no"?>
<!DOCTYPE svg PUBLIC "-//W3C//DTD SVG 20010904//EN"
 "http://www.w3.org/TR/2001/REC-SVG-20010904/DTD/svg10.dtd">
<svg version="1.0" xmlns="http://www.w3.org/2000/svg"
 width="910.000000pt" height="912.000000pt" viewBox="0 0 910.000000 912.000000"
 preserveAspectRatio="xMidYMid meet">
<metadata>
Created by potrace 1.15, written by Peter Selinger 2001-2017
</metadata>
<g transform="translate(0.000000,912.000000) scale(0.100000,-0.100000)"
fill="#000000" stroke="none">
<path d="M5725 8878 c-132 -133 -239 -245 -237 -249 1 -5 -2 -8 -6 -7 -12 4
-162 -148 -155 -156 4 -3 1 -6 -6 -6 -16 0 -102 -86 -94 -94 4 -3 1 -6 -6 -6
-15 0 -181 -167 -173 -174 3 -3 -2 -6 -12 -6 -9 0 -14 -4 -11 -10 3 -5 -1 -10
-10 -10 -9 0 -13 -4 -10 -10 3 -5 1 -10 -6 -10 -15 0 -59 -47 -51 -54 3 -3 0
-6 -7 -6 -16 0 -102 -86 -94 -94 4 -3 1 -6 -6 -6 -16 0 -101 -87 -93 -94 3 -3
-2 -6 -12 -6 -9 0 -14 -4 -11 -10 3 -5 1 -10 -6 -10 -15 0 -489 -476 -489
-491 0 -6 -4 -7 -10 -4 -5 3 -10 -1 -10 -10 0 -9 -3 -14 -7 -12 -5 2 -16 -4
-25 -15 -10 -10 -15 -18 -12 -18 3 0 -14 -17 -38 -37 -50 -44 -90 -83 -84 -83
2 0 -42 -45 -99 -100 -56 -55 -100 -102 -97 -105 3 -3 -2 -5 -12 -5 -9 0 -14
-4 -11 -10 3 -5 1 -10 -6 -10 -6 0 -22 -11 -35 -25 -13 -14 -21 -25 -19 -25 3
0 -3 -8 -12 -18 -10 -11 -21 -17 -25 -15 -5 2 -8 -3 -8 -11 0 -8 -5 -18 -12
-22 -7 -5 -8 -2 -3 7 6 12 -15 -12 -73 -80 -11 -13 -12 -13 -6 -1 4 8 -13 -5
-37 -30 -25 -25 -44 -48 -42 -52 2 -5 -3 -8 -12 -8 -9 0 -13 -4 -10 -10 3 -5
1 -10 -6 -10 -15 0 -59 -47 -51 -54 3 -3 -3 -6 -13 -6 -10 0 -16 -3 -12 -6 3
-3 -14 -23 -38 -44 -24 -21 -41 -41 -38 -44 4 -3 -1 -6 -11 -6 -9 0 -14 -4
-11 -10 3 -5 -1 -10 -10 -10 -9 0 -13 -4 -10 -10 3 -5 -1 -10 -10 -10 -9 0
-13 -4 -10 -10 3 -5 -1 -10 -10 -10 -9 0 -13 -4 -10 -10 3 -5 1 -10 -6 -10
-15 0 -59 -47 -51 -54 3 -3 -2 -6 -12 -6 -9 0 -14 -4 -11 -10 3 -5 -1 -10 -10
-10 -9 0 -14 -3 -12 -7 4 -10 -40 -53 -47 -45 -3 3 -6 -2 -6 -12 0 -9 -4 -14
-10 -11 -5 3 -10 -1 -10 -10 0 -9 -4 -13 -10 -10 -5 3 -10 -1 -10 -10 0 -9 -4
-13 -10 -10 -5 3 -10 -1 -10 -10 0 -9 -4 -13 -10 -10 -5 3 -10 -1 -10 -10 0
-10 -5 -13 -12 -9 -8 5 -9 2 -5 -10 4 -9 3 -15 -2 -12 -5 3 -22 -8 -40 -24
-17 -17 -28 -30 -26 -30 3 0 0 -6 -7 -14 -7 -8 -17 -11 -22 -8 -5 3 -6 -2 -3
-12 4 -10 3 -15 -3 -11 -6 3 -13 -1 -16 -9 -3 -9 -10 -13 -15 -10 -5 3 -9 -2
-9 -11 0 -9 -4 -13 -10 -10 -5 3 -10 0 -10 -7 0 -7 -13 -24 -29 -38 -17 -13
-28 -28 -25 -32 3 -5 2 -8 -3 -7 -18 3 -34 -1 -31 -8 5 -10 -59 -72 -67 -65
-3 3 -5 -2 -5 -12 0 -9 -4 -14 -10 -11 -5 3 -10 -1 -10 -10 0 -9 -4 -13 -10
-10 -5 3 -10 -1 -10 -10 0 -9 -4 -13 -10 -10 -5 3 -10 -1 -10 -10 0 -9 -4 -13
-10 -10 -5 3 -10 1 -10 -5 0 -15 -26 -41 -34 -33 -3 4 -6 -1 -6 -11 0 -11 -4
-14 -12 -10 -8 5 -9 2 -5 -10 4 -9 3 -15 -2 -11 -5 3 -27 -15 -49 -40 -22 -25
-45 -45 -51 -45 -7 0 -10 -4 -7 -8 3 -5 -6 -15 -19 -22 -13 -7 -22 -16 -20
-20 2 -4 -7 -13 -20 -20 -14 -7 -25 -17 -25 -21 0 -13 -57 -68 -64 -62 -3 4
-6 -1 -6 -11 0 -9 -5 -14 -10 -11 -5 3 -10 -1 -10 -10 0 -9 -4 -13 -10 -10 -6
3 -10 -1 -10 -10 0 -9 -4 -13 -10 -10 -5 3 -10 -1 -10 -9 0 -9 -7 -16 -16 -16
-8 0 -12 -4 -9 -10 3 -5 -1 -10 -10 -10 -9 0 -15 -3 -13 -7 5 -11 -80 -91 -88
-84 -4 3 -4 -2 -1 -11 3 -10 3 -17 -1 -15 -4 1 -26 -17 -49 -40 -22 -23 -44
-39 -49 -35 -4 4 -4 -1 -1 -10 3 -10 3 -17 -1 -15 -10 3 -118 -106 -114 -115
1 -5 -2 -7 -6 -5 -4 1 -31 -21 -59 -50 -28 -28 -54 -49 -59 -45 -4 4 -4 -1 -1
-10 4 -11 2 -17 -6 -15 -7 1 -11 -4 -10 -10 2 -7 -3 -12 -10 -10 -6 1 -11 -4
-9 -11 1 -8 -2 -11 -8 -7 -5 3 -13 -1 -16 -9 -3 -9 -10 -13 -15 -10 -5 3 -9 0
-9 -6 0 -17 -26 -40 -35 -32 -5 4 -5 -1 -2 -11 4 -10 3 -16 -2 -13 -5 3 -17
-5 -27 -19 -10 -13 -22 -21 -28 -18 -5 4 -7 -1 -3 -10 3 -9 3 -16 -1 -14 -10
3 -97 -86 -94 -95 1 -5 -1 -7 -6 -5 -9 3 -58 -46 -55 -55 2 -5 -1 -7 -5 -5 -4
1 -22 -12 -39 -30 -17 -17 -34 -29 -39 -25 -4 4 -4 -1 -1 -11 4 -11 3 -16 -3
-12 -6 3 -13 -1 -16 -9 -3 -9 -11 -13 -17 -9 -6 4 -8 0 -4 -11 4 -10 3 -15 -3
-11 -6 3 -13 -1 -16 -9 -3 -9 -10 -13 -15 -10 -5 3 -9 0 -9 -6 0 -17 -26 -40
-35 -32 -5 4 -5 -1 -2 -11 4 -11 3 -16 -3 -12 -6 3 -13 -1 -16 -9 -3 -9 -11
-13 -17 -9 -6 4 -8 0 -4 -10 3 -9 3 -16 -2 -14 -4 1 -26 -17 -49 -39 -22 -23
-44 -39 -48 -35 -4 3 -4 -2 -1 -11 3 -10 3 -17 -1 -15 -10 3 -77 -66 -74 -76
1 -4 -4 -6 -10 -5 -7 2 -12 -3 -10 -10 1 -6 -4 -11 -10 -10 -7 2 -12 -3 -10
-10 1 -6 -2 -11 -6 -10 -10 4 -338 -323 -334 -334 1 -4 -4 -7 -10 -6 -7 2 -12
-3 -10 -10 1 -8 -1 -11 -6 -8 -10 6 -78 -64 -74 -76 1 -4 -4 -7 -10 -6 -7 2
-12 -3 -10 -10 1 -6 -2 -11 -6 -10 -10 4 -117 -104 -114 -115 1 -4 -4 -6 -10
-5 -7 2 -12 -3 -10 -10 1 -6 -2 -11 -6 -10 -5 2 -85 -74 -179 -169 -94 -94
-174 -169 -178 -165 -4 4 -6 3 -4 -3 1 -5 -1 -17 -4 -25 -4 -8 -6 -583 -5
-1278 l3 -1263 2287 2288 c1258 1258 2496 2497 2750 2753 446 448 521 521 503
491 -5 -9 -4 -12 3 -7 6 4 9 12 7 19 -3 7 122 138 278 292 275 273 331 326
312 296 -5 -9 -4 -12 3 -7 6 4 9 12 6 19 -6 17 283 300 297 291 8 -5 9 -3 4 5
-5 8 243 262 731 751 408 409 741 734 745 728 4 -7 9 -7 13 1 4 6 5 15 2 19
-3 5 57 71 134 147 97 97 143 136 154 132 16 -7 17 -31 2 -56 -6 -10 -5 -12 2
-7 8 5 12 -1 12 -17 0 -39 9 -37 57 8 30 29 42 48 37 57 -6 11 -5 11 8 0 12
-10 17 -10 26 1 9 11 3 14 -31 16 -87 6 -96 7 -103 14 -4 4 55 70 131 147
l139 140 -1274 -1 -1275 0 -240 -241z m-1297 -1961 c77 -31 185 -110 248 -180
161 -178 202 -349 123 -513 -26 -56 -60 -96 -208 -246 l-176 -178 -362 358
-363 358 188 186 c183 182 217 208 297 235 60 20 177 10 253 -20z m-888 -1152
l295 -295 175 175 c96 96 178 175 181 175 8 0 119 -111 119 -119 0 -3 -113
-119 -250 -256 l-250 -250 -360 360 -360 360 72 72 c40 40 75 73 78 73 3 0
138 -133 300 -295z m-384 -194 c70 -35 105 -61 175 -130 163 -162 214 -314
167 -496 -19 -75 -61 -140 -143 -222 -145 -145 -287 -187 -465 -137 -149 42
-319 201 -396 369 -39 84 -45 215 -15 304 52 152 188 287 346 344 38 13 73 17
146 14 91 -2 102 -5 185 -46z m-909 -706 c48 -14 133 -67 133 -83 0 -4 -31
-40 -68 -80 l-67 -73 -40 21 c-80 43 -162 9 -232 -94 -47 -69 -44 -125 7 -151
40 -20 94 -2 223 74 166 98 211 116 292 116 85 0 144 -26 210 -91 110 -111
113 -279 5 -425 -53 -72 -162 -165 -230 -197 -71 -34 -168 -41 -238 -18 -55
19 -142 70 -142 85 0 6 26 40 57 78 31 37 58 70 60 72 1 2 26 -6 55 -19 68
-29 128 -28 183 4 105 62 158 186 110 259 -40 62 -97 53 -250 -37 -164 -98
-214 -117 -297 -117 -152 0 -272 124 -270 278 2 148 156 336 324 394 65 22
109 24 175 4z"/>
<path d="M4173 6731 c-23 -11 -81 -57 -128 -102 l-86 -83 238 -238 238 -238
83 83 c83 83 132 159 132 206 0 53 -57 148 -138 233 -137 142 -241 185 -339
139z"/>
<path d="M2847 5406 c-117 -44 -201 -175 -183 -287 18 -114 153 -274 273 -324
134 -56 274 -4 341 125 30 57 33 72 30 126 -5 83 -47 163 -128 244 -84 84
-153 121 -234 126 -37 3 -76 -1 -99 -10z"/>
<path d="M6813 7394 c-46 -44 -80 -84 -76 -88 12 -12 12 -37 0 -29 -8 4 -7 1
1 -9 7 -9 13 -32 14 -53 1 -27 4 -32 10 -21 5 9 20 28 34 43 13 14 24 31 24
36 0 6 3 7 6 4 4 -4 3 -12 -2 -20 -5 -7 -1 -4 8 6 10 11 15 24 11 31 -4 6 1 5
10 -3 15 -12 17 -12 11 4 -6 14 -4 16 7 10 8 -5 11 -4 6 0 -9 11 -29 15 -86
16 -40 1 -43 3 -26 15 10 7 23 11 29 7 6 -3 8 -2 3 2 -10 11 23 46 36 38 5 -3
7 -2 4 4 -4 5 7 23 23 38 17 16 30 27 31 24 1 -5 6 -42 10 -80 2 -14 9 -26 16
-26 6 0 10 4 6 9 -8 13 49 70 64 64 7 -3 15 0 19 6 5 7 2 8 -6 3 -8 -5 -11 -3
-8 6 3 8 10 13 16 12 6 -2 9 4 6 12 -4 9 -20 15 -38 16 -17 0 -42 1 -56 2 -19
2 -45 -18 -107 -79z"/>
<path d="M6006 6585 c-11 -8 -15 -19 -10 -27 4 -7 3 -9 -1 -5 -11 10 -136
-113 -128 -126 4 -6 0 -8 -10 -4 -9 3 -18 0 -21 -9 -3 -9 -1 -12 4 -9 13 8 13
-8 -1 -22 -8 -8 -8 -13 0 -17 6 -4 11 -22 11 -41 0 -19 5 -37 12 -41 7 -5 8
-3 4 5 -9 14 20 51 39 51 7 0 19 8 26 18 13 16 12 16 -6 3 -11 -8 -8 -3 7 12
15 15 33 27 40 27 9 0 9 3 -2 10 -8 5 -31 10 -51 10 -20 0 -39 3 -42 7 -10 9
44 64 55 57 5 -3 7 0 6 8 -2 7 3 12 10 10 8 -1 11 2 8 6 -3 5 3 17 14 27 11
10 20 16 21 14 1 -5 6 -43 10 -81 4 -32 7 -33 34 -11 l20 16 -20 -7 c-16 -5
-15 -3 5 14 14 11 28 20 33 20 4 0 7 7 7 15 0 16 34 38 44 27 4 -3 4 1 1 9 -3
9 -11 16 -18 16 -7 1 -31 2 -54 4 -34 2 -41 5 -32 16 14 17 9 16 -15 -2z"/>
<path d="M2882 3456 c-17 -19 -32 -33 -34 -32 -1 2 -16 -13 -33 -33 l-29 -36
31 29 c29 26 32 27 30 8 0 -11 -6 -18 -12 -14 -5 3 -5 -1 2 -9 14 -17 21 -85
9 -96 -7 -8 -135 -5 -148 3 -4 2 -4 -24 -1 -58 2 -35 5 -72 5 -83 0 -15 3 -13
13 9 8 20 14 25 18 15 4 -11 6 -11 6 1 1 8 18 31 38 50 21 19 31 26 23 15 -14
-18 -14 -19 2 -7 10 8 16 19 15 25 -1 7 3 11 10 10 15 -3 55 52 45 62 -4 5 -2
5 5 1 7 -4 17 2 23 14 6 11 15 18 21 15 5 -4 8 -1 7 7 -2 7 3 12 10 11 6 -2
11 0 11 5 -4 21 3 32 19 32 36 1 -15 20 -57 22 -25 1 -40 6 -38 12 3 6 10 10
16 9 6 -2 10 3 9 10 -2 6 2 11 8 10 6 -1 11 5 11 13 0 19 -1 19 -35 -20z"/>
</g>
</svg>
