<?xml version="1.0" standalone="no"?>
<!DOCTYPE svg PUBLIC "-//W3C//DTD SVG 20010904//EN"
 "http://www.w3.org/TR/2001/REC-SVG-20010904/DTD/svg10.dtd">
<svg version="1.0" xmlns="http://www.w3.org/2000/svg"
 width="512.000000pt" height="512.000000pt" viewBox="0 0 512.000000 512.000000"
 preserveAspectRatio="xMidYMid meet">

<g transform="translate(0.000000,512.000000) scale(0.100000,-0.100000)"
fill="red" stroke="none">
<path d="M2354 5110 c-620 -52 -1198 -326 -1630 -771 -769 -794 -942 -1994
-427 -2969 304 -576 832 -1028 1438 -1230 296 -98 514 -133 825 -133 408 0
771 83 1125 258 772 380 1294 1107 1411 1965 23 169 23 491 0 660 -133 973
-794 1780 -1713 2091 -319 108 -705 156 -1029 129z m406 -965 c567 -92 1000
-597 1000 -1168 0 -255 -138 -578 -445 -1042 -169 -257 -484 -668 -682 -893
-40 -46 -61 -62 -76 -60 -38 5 -429 489 -648 800 -296 422 -480 778 -534 1033
-30 144 -12 357 46 529 138 412 506 729 930 800 114 19 294 19 409 1z"/>
<path d="M2445 3749 c-268 -41 -496 -214 -609 -461 -52 -113 -70 -196 -70
-328 0 -131 18 -215 69 -327 82 -179 219 -316 397 -397 113 -52 196 -70 328
-70 131 0 215 18 327 69 224 103 387 298 449 540 24 95 24 275 0 370 -75 290
-302 519 -587 589 -83 20 -226 28 -304 15z m264 -164 c172 -41 342 -176 419
-335 54 -109 72 -184 72 -290 0 -292 -205 -552 -495 -625 -76 -19 -214 -19
-290 0 -114 29 -223 91 -306 174 -127 128 -189 276 -189 451 0 179 69 340 197
461 84 80 188 139 290 163 77 19 223 19 302 1z"/>
</g>
</svg>
