<?xml version="1.0" standalone="no"?>
<!DOCTYPE svg PUBLIC "-//W3C//DTD SVG 20010904//EN"
 "http://www.w3.org/TR/2001/REC-SVG-20010904/DTD/svg10.dtd">
<svg version="1.0" xmlns="http://www.w3.org/2000/svg"
 width="512.000000pt" height="512.000000pt" viewBox="0 0 512.000000 512.000000"
 preserveAspectRatio="xMidYMid meet">

<g transform="translate(0.000000,512.000000) scale(0.100000,-0.100000)"
fill="#3187ef" stroke="none">
<path d="M2377 5110 c-842 -65 -1591 -529 -2018 -1252 -328 -554 -433 -1221
-293 -1858 191 -864 847 -1589 1689 -1865 442 -145 914 -169 1365 -69 868 194
1589 846 1865 1689 145 442 169 914 69 1365 -105 471 -341 898 -689 1245 -404
405 -916 657 -1475 729 -151 19 -378 26 -513 16z m389 -965 c501 -88 891 -478
979 -979 17 -102 20 -261 4 -338 -50 -253 -239 -621 -541 -1054 -227 -323
-609 -794 -645 -794 -25 0 -123 110 -338 380 -482 604 -794 1141 -855 1469
-15 79 -12 236 5 337 87 497 476 889 971 978 107 19 311 20 420 1z"/>
<path d="M2460 3749 c-172 -22 -335 -103 -461 -228 -312 -313 -312 -809 0
-1122 258 -258 651 -308 966 -123 263 155 422 472 385 770 -47 375 -327 657
-701 704 -92 11 -96 11 -189 -1z m250 -165 c116 -27 205 -79 300 -174 132
-132 190 -268 190 -450 0 -182 -58 -318 -190 -450 -132 -132 -268 -190 -450
-190 -182 0 -318 58 -450 190 -133 132 -190 268 -190 454 0 178 58 315 190
446 92 92 168 138 282 171 80 22 230 24 318 3z"/>
</g>
</svg>
