<svg xmlns="http://www.w3.org/2000/svg" width="14.32" height="14.32" viewBox="0 0 14.32 14.32"><defs><style>.cls-1{fill:#fff;}.cls-2{fill:none;}</style></defs><title>Asset 9</title><g id="Layer_2" data-name="Layer 2"><g id="My_purchase_objects" data-name="My purchase objects"><path class="cls-1" d="M13.5,6.38a.82.82,0,0,0-.82.82V10.7A1.3,1.3,0,0,1,11.39,12H2.93A1.3,1.3,0,0,1,1.64,10.7V7.14A.82.82,0,1,0,0,7.14V10.7a2.93,2.93,0,0,0,2.93,2.93h8.46a2.93,2.93,0,0,0,2.93-2.93V7.2A.82.82,0,0,0,13.5,6.38Z"/><path class="cls-1" d="M6.58,10.44h0a.83.83,0,0,0,.58.24.81.81,0,0,0,.58-.24L10.19,8a.82.82,0,0,0,0-1.16A.84.84,0,0,0,9,6.84L8,7.89V1.12a.82.82,0,1,0-1.64,0V7.89L5.29,6.84a.84.84,0,0,0-1.16,0A.82.82,0,0,0,4.13,8Z"/><rect class="cls-2" width="14.32" height="14.32"/></g></g></svg>