<svg xmlns="http://www.w3.org/2000/svg" width="43.54" height="43.54" viewBox="0 0 43.54 43.54"><defs><style>.cls-1{fill:none;}.cls-2{fill:#00d472;}.cls-3{fill:#fff;}</style></defs><title>Asset 9</title><g id="Layer_2" data-name="Layer 2"><g id="Missions_Filter" data-name="Missions Filter"><rect class="cls-1" width="43.54" height="43.54"/><path class="cls-2" d="M40.95,3.3H2.59A1.51,1.51,0,0,0,1.08,4.82v28.6a1.51,1.51,0,0,0,1.51,1.51H15.84l4.86,4.86a1.51,1.51,0,0,0,2.14,0l4.86-4.86H40.95a1.51,1.51,0,0,0,1.51-1.51V4.82A1.52,1.52,0,0,0,40.95,3.3Z"/><path d="M21.77,41a2.26,2.26,0,0,1-1.61-.67l-4.64-4.64H2.59A2.27,2.27,0,0,1,.32,33.42V4.82A2.27,2.27,0,0,1,2.59,2.55H40.95a2.27,2.27,0,0,1,2.27,2.27v28.6a2.27,2.27,0,0,1-2.27,2.27H28l-4.64,4.64A2.26,2.26,0,0,1,21.77,41ZM2.59,4.06a.76.76,0,0,0-.76.76v28.6a.76.76,0,0,0,.76.76H16.15l5.08,5.08a.78.78,0,0,0,1.07,0l5.08-5.08H40.95a.76.76,0,0,0,.76-.76V4.82a.76.76,0,0,0-.76-.76Z"/><path class="cls-3" d="M29.94,22.87c0-3.8-2.94-5-5.5-5.64-3.26-.8-3.9-1.42-3.9-2.21a1.07,1.07,0,0,1,1.17-1c.88,0,1.41.54,1.66,1.7l0,.17h6.11l0-.24C29,12.48,26.71,10.43,23.31,10V7.85H20.25v2.23c-3.65.51-5.92,2.6-5.92,5.62,0,2.83,1.72,4.55,5.41,5.42,2.95.68,4,1.26,4,2.21s-1.24,1.11-1.63,1.11a2.5,2.5,0,0,1-2.37-2l0-.16H13.6l0,.23c.38,3.29,2.77,5.37,6.63,5.86v2.22h3.06V28.41C27.43,28.08,29.94,26,29.94,22.87Z"/></g></g></svg>