<svg id="Layer_1" data-name="Layer 1" xmlns="http://www.w3.org/2000/svg" viewBox="0 0 44 44"><defs><style>.cls-1{fill:#00d472;}.cls-2{fill:#fff;}</style></defs><title>tito_icon_webapp_mission</title><g id="Layer_2" data-name="Layer 2"><g id="Find_and_assign" data-name="Find and assign"><path class="cls-1" d="M41.67,3.34H2.33A1.55,1.55,0,0,0,.78,4.9h0V34.23a1.55,1.55,0,0,0,1.55,1.49H15.91l5,5a1.55,1.55,0,0,0,2.19,0h0l5-5H41.67a1.55,1.55,0,0,0,1.55-1.55h0V4.9a1.55,1.55,0,0,0-1.55-1.55Z"/><path d="M22,42a2.32,2.32,0,0,1-1.64-.68l-4.76-4.76H2.33A2.33,2.33,0,0,1,0,34.22V4.9A2.33,2.33,0,0,1,2.33,2.56H41.67A2.33,2.33,0,0,1,44,4.9h0V34.22a2.33,2.33,0,0,1-2.33,2.33H28.41l-4.76,4.76A2.32,2.32,0,0,1,22,42ZM2.33,4.11a.78.78,0,0,0-.78.78V34.22a.78.78,0,0,0,.78.78h13.9l5.21,5.21a.8.8,0,0,0,1.1,0L27.76,35H41.67a.78.78,0,0,0,.78-.78V4.9a.78.78,0,0,0-.78-.78H2.33Z"/></g></g><path class="cls-2" d="M30.42,23c0-3.85-3.05-5.17-5.7-5.83s-4-1.46-4-2.25a1.06,1.06,0,0,1,1.06-1.06h.13c.93,0,1.46.53,1.72,1.72h6.23v-.27a6.63,6.63,0,0,0-6.37-5.7v-2H20.47V9.83c-3.71.53-6.1,2.65-6.1,5.7s1.72,4.64,5.57,5.57,4.11,1.33,4.11,2.25-1.33,1.19-1.72,1.19a2.52,2.52,0,0,1-2.52-2.12H13.58v.27c.4,3.32,2.78,5.44,6.76,6v2.25h3.18V28.66C27.85,28.39,30.42,26.27,30.42,23Z"/></svg>