<svg xmlns="http://www.w3.org/2000/svg" width="20" height="20" viewBox="0 0 20 20"><defs><style>.cls-1{fill:#3187ef;}.cls-2{fill:none;}</style></defs><title>Asset 4</title><g id="Layer_2" data-name="Layer 2"><g id="Thank_you" data-name="Thank you"><path class="cls-1" d="M15.88,2.38A.45.45,0,0,0,16,2.05a.46.46,0,0,0-.14-.33L14.3.14A.49.49,0,0,0,14,0a.46.46,0,0,0-.33.14L4.11,9.67A.46.46,0,0,0,4,10a.45.45,0,0,0,.14.33l9.54,9.54A.45.45,0,0,0,14,20h0a.46.46,0,0,0,.33-.14l1.58-1.59a.45.45,0,0,0,.14-.32.46.46,0,0,0-.14-.33L8.27,10Z"/><rect class="cls-2" width="20" height="20"/></g></g></svg>