<svg xmlns="http://www.w3.org/2000/svg" width="43.54" height="43.54" viewBox="0 0 43.54 43.54"><defs><style>.cls-1{fill:none;}.cls-2{fill:#3187ef;stroke:#000;stroke-miterlimit:10;}.cls-3{fill:#fff;}</style></defs><title>Asset 7</title><g id="Layer_2" data-name="Layer 2"><g id="Stats"><rect class="cls-1" width="43.54" height="43.54"/><path class="cls-2" d="M42.17,2.94H1.37a.71.71,0,0,0-.71.71V34.16a.71.71,0,0,0,.71.71H15.83l5.53,5.53a.71.71,0,0,0,1,0l5.53-5.53H42.17a.71.71,0,0,0,.71-.71V3.64A.71.71,0,0,0,42.17,2.94Z"/><path class="cls-3" d="M30,22.1c-1.94-1.94-2.25-2.84-2.24-6.24A5.47,5.47,0,0,0,24.93,11a6,6,0,0,0-9,5.09,9.82,9.82,0,0,1-.28,3.08,7.1,7.1,0,0,1-2,3,.89.89,0,0,0,.63,1.51h4.57l0,.36a3,3,0,1,0,5.94,0l0-.36h4.57A.89.89,0,0,0,30,22.1ZM23.89,24a2,2,0,0,1-4.06,0l0-.37h4Zm5.34-1.3H14.48c2.5-2.54,2.42-4.22,2.43-6.83a4.58,4.58,0,0,1,2.4-4.09,5,5,0,0,1,7.49,4.3C26.8,18.55,26.8,20.2,29.23,22.67Z"/><rect class="cls-1" x="13.47" y="10.17" width="16.77" height="16.77"/></g></g></svg>