<svg xmlns="http://www.w3.org/2000/svg" width="20" height="20" viewBox="0 0 20 20"><defs><style>.cls-1{fill:#ffee52;}.cls-2{fill:#c9774e;}.cls-3{fill:#ffa64d;}.cls-4{fill:none;}</style></defs><title>Asset 4</title><g id="Layer_2" data-name="Layer 2"><g id="Event_details" data-name="Event details"><circle class="cls-1" cx="10" cy="12.82" r="5.28"/><path d="M10,7.26a5.56,5.56,0,1,0,5.56,5.56A5.57,5.57,0,0,0,10,7.26Zm0,10.49a4.93,4.93,0,1,1,4.93-4.93A4.93,4.93,0,0,1,10,17.75Z"/><path d="M13.59,10.28a1.48,1.48,0,0,0-2.53,0,.32.32,0,0,0,.55.33.84.84,0,0,1,1.44,0,.32.32,0,1,0,.55-.33Z"/><path d="M8.84,10.72a.32.32,0,0,0,.11-.44,1.48,1.48,0,0,0-2.53,0,.32.32,0,0,0,.11.44A.32.32,0,0,0,7,10.61a.84.84,0,0,1,1.44,0A.32.32,0,0,0,8.84,10.72Z"/><circle cx="7.68" cy="12.2" r="0.72"/><circle cx="12.32" cy="12.2" r="0.72"/><path d="M10,13a1.82,1.82,0,0,0-1.56,2A1.82,1.82,0,0,0,10,17a1.82,1.82,0,0,0,1.56-2A1.82,1.82,0,0,0,10,13Zm0,3.27c-.46,0-.84-.57-.84-1.28s.38-1.28.84-1.28.84.57.84,1.28S10.46,16.29,10,16.29Z"/><path class="cls-2" d="M10,2.6S8.05,2,7.92,2s-1.47.58-1.47.58l-.64.91L5.6,4.8l-.38.32s-.22.43-.32.45-.1.19-.41,0A10.55,10.55,0,0,0,3,4.78a7,7,0,0,0-1,.12c-.25.06-.59.53-.45.75s0,.94,0,.94,1.29.87,1.37.91,2.46.39,2.46.39L6.78,8,7.92,8c.14,0,1.58.29,1.58.29h1c.09,0,.9-.17.9-.17l2.43,0,3-.37,1.59-1.11.1-1.05L18,4.83h-.89a5.25,5.25,0,0,0-.93.32c-.1.07-1.1.61-1.1.61l-.82-2.11S13.2,2.33,13.14,2.29s-.72-.21-.78-.27a8.21,8.21,0,0,0-1.3.19Z"/><polygon class="cls-3" points="15.09 5.76 13.18 7.03 6.82 7.03 4.91 5.76 5.22 5.12 14.78 5.12 15.09 5.76"/><path d="M17.52,4.48h-.2a4.35,4.35,0,0,0-2,.85L14.81,4.1a5.21,5.21,0,0,0-1.2-1.86A2.09,2.09,0,0,0,11,2a1.69,1.69,0,0,1-.94.29H10A1.69,1.69,0,0,1,9,2a2.09,2.09,0,0,0-2.64.26A5.21,5.21,0,0,0,5.19,4.1L4.72,5.34a4.35,4.35,0,0,0-2-.85h-.2A1.39,1.39,0,0,0,1.61,7,5.7,5.7,0,0,0,4.27,8.14s1.37.14,4.14.14A4.4,4.4,0,0,0,10,8.62a4.4,4.4,0,0,0,1.59-.34c2.77,0,4.14-.14,4.14-.14A5.7,5.7,0,0,0,18.39,7a1.39,1.39,0,0,0-.87-2.48ZM5.79,4.32A4.57,4.57,0,0,1,6.84,2.68,1.49,1.49,0,0,1,8.68,2.5,2.33,2.33,0,0,0,10,2.89H10a2.33,2.33,0,0,0,1.29-.39,1.49,1.49,0,0,1,1.84.18,4.57,4.57,0,0,1,1.05,1.64l.18.48H5.6ZM5.37,5.44h9.27l.1.25L14.3,6c-.36.24-.73.49-1.11.73H6.82C6.44,6.48,6.06,6.23,5.7,6l-.43-.29ZM6.59,7.67a16.57,16.57,0,0,1-2-.13A5.06,5.06,0,0,1,2,6.47a.76.76,0,0,1,.47-1.35h.2A7,7,0,0,1,5.35,6.51c.58.39,1.19.8,1.81,1.16ZM10,8a4.77,4.77,0,0,1-2.1-.64h4.2A4.77,4.77,0,0,1,10,8Zm8-1.52a5.06,5.06,0,0,1-2.54,1.07,16.57,16.57,0,0,1-2,.13h-.57c.62-.35,1.23-.77,1.81-1.16a7,7,0,0,1,2.67-1.39h.2A.76.76,0,0,1,18,6.47Z"/><rect class="cls-4" width="20" height="20"/></g></g></svg>