<svg xmlns="http://www.w3.org/2000/svg" width="124" height="124" viewBox="0 0 124 124"><defs><style>.cls-1{fill:#3187ef;}.cls-2{fill:none;}</style></defs><title>Asset 1</title><g id="Layer_2" data-name="Layer 2"><g id="Almost_done" data-name="Almost done"><path class="cls-1" d="M118.88,91.83l.13,0,.11,0,.13,0,.11,0,.11-.05.11-.05.11-.06.11-.07.11-.08.09-.07.16-.14,0,0,0,0,.14-.16.07-.1.07-.1.07-.12.06-.1.06-.12,0-.11,0-.12,0-.12,0-.12,0-.12s0-.1,0-.14,0-.07,0-.1,0-.17,0-.25V34.67a2.56,2.56,0,0,0-2.56-2.56H37.51l-.13,0-.12,0-.12,0-.12,0-.12,0-.11,0-.12.06-.1.05-.12.07-.1.06-.11.08-.1.08-.09.08-.1.1,0,0,0,0-.09.12-.06.09-.08.12-.06.1-.06.12-.05.11,0,.12,0,.12,0,.12,0,.12,0,.12,0,.13s0,.07,0,.11,0,.1,0,.14,0,0,0,0V50.44a2.56,2.56,0,1,0,5.11,0V40.35L63.13,60.48a2.56,2.56,0,0,0-.34.28L40.4,83.15V66.35a2.56,2.56,0,0,0-5.11,0v3.12H22.07a2.56,2.56,0,0,0,0,5.11H35.28V89.33a2.56,2.56,0,0,0,2.56,2.56h80.79l.12,0,.13,0Zm-3.06-8.68L93.43,60.76l0,0,16.84-14.28a2.56,2.56,0,1,0-3.31-3.9L78.14,66.94,44.58,37.23h71.24ZM66.4,64.38a2.62,2.62,0,0,0,.45-.6l9.56,8.47a2.56,2.56,0,0,0,3.35,0L89.51,64a2.74,2.74,0,0,0,.3.37L112.2,86.77H44Zm0,0"/><path class="cls-1" d="M5.59,61.24H48.77a2.56,2.56,0,0,0,0-5.11H5.59a2.56,2.56,0,1,0,0,5.11Zm0,0"/><path class="cls-1" d="M10.07,47.15H29.46a2.56,2.56,0,1,0,0-5.11H10.07a2.56,2.56,0,1,0,0,5.11Zm0,0"/><path class="cls-1" d="M24.34,80.27H5.59a2.56,2.56,0,1,0,0,5.11H24.34a2.56,2.56,0,0,0,0-5.11Zm0,0"/><rect class="cls-2" width="124" height="124"/></g></g></svg>