<svg xmlns="http://www.w3.org/2000/svg" width="12" height="12" viewBox="0 0 12 12"><defs><style>.cls-1{fill:none;}</style></defs><title>Asset 3</title><g id="Layer_2" data-name="Layer 2"><g id="Mission_details" data-name="Mission details"><path id="right_arroow" data-name="right arroow" d="M.27,4.29A.76.76,0,0,1,.75,4.1a.7.7,0,0,1,.49.21L6,8.51l4.79-4.19a.72.72,0,0,1,.5-.22h0a.68.68,0,0,1,.46.17.59.59,0,0,1,.27.44.73.73,0,0,1-.23.58L6.48,9.94a.63.63,0,0,1-.48.21A1,1,0,0,1,5.48,10L.27,5.32A.68.68,0,0,1,0,4.74.59.59,0,0,1,.27,4.29Z"/><rect class="cls-1" width="12" height="12"/></g></g></svg>