<svg xmlns="http://www.w3.org/2000/svg" width="26" height="26" viewBox="0 0 26 26"><defs><style>.cls-1{fill:#3187ef;}.cls-2{fill:none;}</style></defs><title>Asset 26</title><g id="Layer_2" data-name="Layer 2"><g id="User_Activity" data-name="User Activity"><path class="cls-1" d="M23.82,10.47l-1.69-.29a9.55,9.55,0,0,0-.68-1.64l1-1.4a1.48,1.48,0,0,0-.16-1.92l-1.5-1.5a1.48,1.48,0,0,0-1.91-.16l-1.4,1a9.44,9.44,0,0,0-1.7-.7l-.28-1.67A1.49,1.49,0,0,0,14,.95H11.89a1.49,1.49,0,0,0-1.47,1.24L10.13,3.9a9.31,9.31,0,0,0-1.64.69l-1.38-1a1.49,1.49,0,0,0-1.92.16L3.69,5.26a1.49,1.49,0,0,0-.16,1.92l1,1.42a9.34,9.34,0,0,0-.67,1.65l-1.67.28A1.49,1.49,0,0,0,.95,12v2.12a1.49,1.49,0,0,0,1.24,1.47l1.71.29a9.33,9.33,0,0,0,.69,1.64l-1,1.38a1.48,1.48,0,0,0,.16,1.92l1.5,1.5a1.48,1.48,0,0,0,1.05.44,1.46,1.46,0,0,0,.86-.28l1.42-1a9.52,9.52,0,0,0,1.59.65l.28,1.69a1.49,1.49,0,0,0,1.47,1.24h2.13a1.49,1.49,0,0,0,1.47-1.24l.29-1.69a9.56,9.56,0,0,0,1.64-.68l1.39,1a1.49,1.49,0,0,0,1.92-.16l1.5-1.5a1.49,1.49,0,0,0,.16-1.92l-1-1.4a9.49,9.49,0,0,0,.68-1.64l1.69-.28a1.49,1.49,0,0,0,1.24-1.47V11.94a1.47,1.47,0,0,0-1.23-1.47Zm-.12,3.59a.13.13,0,0,1-.11.13l-2.12.35a.68.68,0,0,0-.54.5,8.06,8.06,0,0,1-.88,2.11.68.68,0,0,0,0,.74l1.24,1.75a.14.14,0,0,1,0,.17l-1.5,1.5a.13.13,0,0,1-.1,0,.12.12,0,0,1-.08,0L17.9,20.09a.68.68,0,0,0-.74,0,8.07,8.07,0,0,1-2.11.88.67.67,0,0,0-.5.54l-.36,2.12a.13.13,0,0,1-.13.11H11.94a.13.13,0,0,1-.13-.11l-.35-2.12a.68.68,0,0,0-.5-.54,8.36,8.36,0,0,1-2.06-.85A.7.7,0,0,0,8.55,20a.66.66,0,0,0-.39.13L6.4,21.38l-.08,0a.14.14,0,0,1-.1,0l-1.5-1.5a.14.14,0,0,1,0-.17L5.95,18a.69.69,0,0,0,0-.75,8,8,0,0,1-.89-2.11.69.69,0,0,0-.54-.5l-2.13-.36a.13.13,0,0,1-.11-.13V12a.13.13,0,0,1,.11-.13l2.1-.35a.68.68,0,0,0,.55-.5,8,8,0,0,1,.86-2.12.67.67,0,0,0,0-.74L4.64,6.39a.14.14,0,0,1,0-.17l1.5-1.5a.13.13,0,0,1,.1,0,.12.12,0,0,1,.08,0L8.06,5.94a.69.69,0,0,0,.75,0,8,8,0,0,1,2.11-.89.69.69,0,0,0,.5-.54l.36-2.13a.13.13,0,0,1,.13-.11H14a.13.13,0,0,1,.13.11l.35,2.1a.68.68,0,0,0,.5.55,8.16,8.16,0,0,1,2.16.89.68.68,0,0,0,.74,0l1.74-1.25.08,0a.13.13,0,0,1,.1,0l1.5,1.5a.14.14,0,0,1,0,.17L20.09,8.1a.68.68,0,0,0,0,.74A8.06,8.06,0,0,1,20.94,11a.67.67,0,0,0,.54.5l2.12.36a.13.13,0,0,1,.11.13v2.12Zm0,0"/><path class="cls-1" d="M13,7.8A5.2,5.2,0,1,0,18.2,13,5.21,5.21,0,0,0,13,7.8Zm0,9A3.84,3.84,0,1,1,16.84,13,3.84,3.84,0,0,1,13,16.84Zm0,0"/><rect class="cls-2" width="26" height="26"/></g></g></svg>