<svg xmlns="http://www.w3.org/2000/svg" width="16.78" height="16.77" viewBox="0 0 16.78 16.77"><defs><style>.cls-1{fill:#fff;}.cls-2{fill:none;}</style></defs><title>Asset 6</title><g id="Layer_2" data-name="Layer 2"><g id="alerts_details" data-name="alerts details"><path class="cls-1" d="M16.51,11.93C14.57,10,14.26,9.08,14.27,5.69A5.47,5.47,0,0,0,11.47.79a6,6,0,0,0-9,5.09A9.82,9.82,0,0,1,2.23,9a7.1,7.1,0,0,1-2,3,.89.89,0,0,0,.63,1.51H5.46l0,.36a3,3,0,1,0,5.94,0l0-.36h4.57a.89.89,0,0,0,.63-1.51Zm-6.1,1.88a2,2,0,0,1-4.06,0l0-.37h4Zm5.34-1.3H1C3.51,10,3.44,8.28,3.44,5.67a4.58,4.58,0,0,1,2.4-4.09,5,5,0,0,1,7.49,4.3C13.33,8.38,13.33,10,15.76,12.5Z"/><rect class="cls-2" width="16.77" height="16.77"/></g></g></svg>