<svg xmlns="http://www.w3.org/2000/svg" width="24.43" height="24.43" viewBox="0 0 24.43 24.43"><defs><style>.cls-1{fill:none;}.cls-2{fill:#3187ef;}</style></defs><title>Asset 13</title><g id="Layer_2" data-name="Layer 2"><g id="Settings"><rect class="cls-1" width="24.43" height="24.43"/><path class="cls-2" d="M10.3,13.16h.16A4.67,4.67,0,0,0,14,11.62c1.95-2.2,1.62-6,1.59-6.32A5.16,5.16,0,0,0,13.16.71,5.62,5.62,0,0,0,10.44,0h-.09A5.63,5.63,0,0,0,7.63.69,5.16,5.16,0,0,0,5.15,5.3c0,.36-.36,4.12,1.59,6.32A4.65,4.65,0,0,0,10.3,13.16ZM6.5,5.43s0,0,0,0c.17-3.63,2.74-4,3.84-4h.06c1.37,0,3.69.59,3.84,4a.1.1,0,0,0,0,0S14.62,8.9,13,10.71a3.32,3.32,0,0,1-2.6,1.08h-.05a3.3,3.3,0,0,1-2.6-1.08C6.15,8.91,6.5,5.46,6.5,5.43Z"/><path class="cls-2" d="M18.23,15.1h0Z"/><path class="cls-2" d="M16.82,16.06a.88.88,0,0,1,.24-.76l.08-.08a.88.88,0,0,1,.68-.25,15.24,15.24,0,0,1-3.59-1.72.68.68,0,1,0-.78,1.12,16.29,16.29,0,0,0,3.37,1.71Z"/><path class="cls-2" d="M16.72,22.15a33.35,33.35,0,0,1-6.33.92A18.72,18.72,0,0,1,1.47,21a8.69,8.69,0,0,1-.11-1.56s0-.08,0-.13c0-1.15.17-2.41,1.35-2.83a15.9,15.9,0,0,0,4.62-2.11.68.68,0,1,0-.78-1.12,14.43,14.43,0,0,1-4.2,1.91l-.05,0C.1,15.92,0,18.26,0,19.26a1,1,0,0,1,0,.13v0a7.75,7.75,0,0,0,.26,2.29A.65.65,0,0,0,.52,22a19.13,19.13,0,0,0,9.87,2.42,32.58,32.58,0,0,0,6.85-1A1.27,1.27,0,0,1,16.72,22.15Z"/><path class="cls-2" d="M20.36,15.15v3.22h3.16a.89.89,0,0,1,.89.89v.11a.89.89,0,0,1-.89.89H20.36v3.22a.89.89,0,0,1-.89.89h0a.89.89,0,0,1-.89-.89V20.27H15.4a.89.89,0,0,1-.89-.89v-.11a.89.89,0,0,1,.89-.89h3.18V15.15a.89.89,0,0,1,.89-.89h0A.89.89,0,0,1,20.36,15.15Z"/></g></g></svg>