<svg xmlns="http://www.w3.org/2000/svg" width="20" height="20" viewBox="0 0 20 20"><defs><style>.cls-1{fill:#4f4f4f;}.cls-2{fill:none;}</style></defs><title>Asset 5</title><g id="Layer_2" data-name="Layer 2"><g id="Event_details" data-name="Event details"><path class="cls-1" d="M6.24,11.16A3.76,3.76,0,1,0,10,7.4,3.76,3.76,0,0,0,6.24,11.16ZM18.1,4.8H14c-.29-1.16-.58-2.31-1.73-2.31H7.69C6.53,2.48,6.24,3.64,6,4.8h-4A1.16,1.16,0,0,0,.75,6V16.36A1.16,1.16,0,0,0,1.9,17.52H18.1a1.16,1.16,0,0,0,1.16-1.16V6A1.16,1.16,0,0,0,18.1,4.8ZM10,16.29a5.13,5.13,0,1,1,5.13-5.13A5.13,5.13,0,0,1,10,16.29Zm8.1-8H15.78V7.11H18.1Z"/><rect class="cls-2" width="20" height="20"/></g></g></svg>