<svg xmlns="http://www.w3.org/2000/svg" width="26" height="26" viewBox="0 0 26 26"><defs><style>.cls-1{fill:none;}</style></defs><title>Asset 23</title><g id="Layer_2" data-name="Layer 2"><g id="User_Activity" data-name="User Activity"><path d="M20,12.17H13.78a.62.62,0,0,0-.64.64v3.53a.62.62,0,0,0,.64.64H20a.62.62,0,0,0,.64-.64V12.8A.62.62,0,0,0,20,12.17Zm-.64,1.27v2.25h-5V13.44Z"/><path d="M3.2,11.87H6.34a.64.64,0,1,0,0-1.27H3.2a.64.64,0,1,0,0,1.27Z"/><path d="M11,10.6H7.9a.64.64,0,1,0,0,1.27H11a.64.64,0,0,0,0-1.27Z"/><path d="M8.3,12.17H3.2a.64.64,0,1,0,0,1.27H8.3a.64.64,0,1,0,0-1.27Z"/><path d="M11,12.17H9.86a.64.64,0,1,0,0,1.27H11a.64.64,0,0,0,0-1.27Z"/><path d="M24.58,7.4a1.7,1.7,0,0,0-1.22-.67l-.72-.09V5a1.81,1.81,0,0,0-1.81-1.81h-18A1.82,1.82,0,0,0,1,5V17.5a1.82,1.82,0,0,0,1.13,1.68,1.77,1.77,0,0,0,1.6,1.62l18.12,2H22a1.8,1.8,0,0,0,1.81-1.55L25,8.72A1.77,1.77,0,0,0,24.58,7.4ZM20.83,18h-18a.54.54,0,0,1-.54-.54v-8h19.1v8A.54.54,0,0,1,20.83,18Zm0,1.27a1.81,1.81,0,0,0,1.81-1.81V7.86l.66.06a.42.42,0,0,1,.31.18.56.56,0,0,1,.11.39l-1.18,12.6a.52.52,0,0,1-.19.36.55.55,0,0,1-.4.12l-18.06-2a.52.52,0,0,1-.38-.22ZM2.27,8.25V6.39h19.1V8.25ZM2.27,5a.54.54,0,0,1,.54-.54h18a.54.54,0,0,1,.54.54v.15H2.27Z"/><rect class="cls-1" width="26" height="26"/></g></g></svg>