<svg xmlns="http://www.w3.org/2000/svg" width="41.07" height="41.07" viewBox="0 0 41.07 41.07"><defs><style>.cls-1{fill:#3187ef;}.cls-2{fill:none;}</style></defs><title>Asset 4</title><g id="Layer_2" data-name="Layer 2"><g id="Mission_details" data-name="Mission details"><path class="cls-1" d="M20.45,21.52h.17a4.87,4.87,0,0,0,3.72-1.61c2-2.29,1.69-6.22,1.66-6.59-.13-2.81-1.46-4.16-2.56-4.79a5.87,5.87,0,0,0-2.84-.74h-.09a5.88,5.88,0,0,0-2.84.72,5.39,5.39,0,0,0-2.59,4.81c0,.37-.37,4.3,1.66,6.59A4.85,4.85,0,0,0,20.45,21.52Zm-4-8.07s0,0,0,0c.17-3.79,2.86-4.19,4-4.19h.06c1.43,0,3.85.61,4,4.19a.1.1,0,0,0,0,0S25,17.08,23.28,19a3.46,3.46,0,0,1-2.72,1.13h-.05A3.45,3.45,0,0,1,17.79,19C16.12,17.09,16.48,13.48,16.48,13.45Z"/><path class="cls-1" d="M31.38,28s0-.08,0-.13c0-1-.1-3.49-2.39-4.27l-.05,0a15.24,15.24,0,0,1-4.38-2,.71.71,0,0,0-.82,1.17A16.44,16.44,0,0,0,28.55,25c1.23.44,1.37,1.75,1.4,3a1.07,1.07,0,0,0,0,.13,9.57,9.57,0,0,1-.11,1.63,19.43,19.43,0,0,1-9.31,2.16,19.54,19.54,0,0,1-9.31-2.17,9.09,9.09,0,0,1-.11-1.63s0-.08,0-.13c0-1.2.17-2.52,1.4-3a16.6,16.6,0,0,0,4.82-2.2.71.71,0,0,0-.82-1.17,15.06,15.06,0,0,1-4.38,2l-.05,0c-2.29.79-2.36,3.23-2.39,4.27a1,1,0,0,1,0,.13v0A8.1,8.1,0,0,0,10,30.43a.68.68,0,0,0,.27.33,20,20,0,0,0,10.31,2.52,20,20,0,0,0,10.31-2.52.71.71,0,0,0,.27-.33A8.5,8.5,0,0,0,31.38,28Z"/><path class="cls-1" d="M20.53,0A20.53,20.53,0,1,0,41.07,20.54,20.56,20.56,0,0,0,20.53,0Zm0,39.57a19,19,0,1,1,19-19A19.06,19.06,0,0,1,20.53,39.57Z"/><rect class="cls-2" width="41.07" height="41.07"/></g></g></svg>