<svg xmlns="http://www.w3.org/2000/svg" width="18" height="18" viewBox="0 0 18 18"><defs><style>.cls-1{fill:#3187ef;}.cls-2{fill:none;}</style></defs><title>Asset 8</title><g id="Layer_2" data-name="Layer 2"><g id="Missions_Filter" data-name="Missions Filter"><path class="cls-1" d="M14.44,11.88a3.27,3.27,0,0,0-1-2.57,7.73,7.73,0,0,0-3.23-1.55L10,7.69l0-3.86.47.14a8.15,8.15,0,0,1,2.29,1.14l1.34-1.89a9.28,9.28,0,0,0-3.76-1.53l-.32,0V.6H8.53v1l-.33,0A4.84,4.84,0,0,0,5.26,2.91,3.67,3.67,0,0,0,4.15,5.64a3.24,3.24,0,0,0,.9,2.53A7.3,7.3,0,0,0,8.16,9.66l.28.08,0,4-.48-.15a8.52,8.52,0,0,1-2.84-1.71L3.56,13.67a9.28,9.28,0,0,0,4.51,2.17l.32.05v1.5H9.88V16l.33,0a5.08,5.08,0,0,0,3.07-1.3A3.66,3.66,0,0,0,14.44,11.88Zm-6-4.58L7.93,7A1.77,1.77,0,0,1,6.82,5.38,1.54,1.54,0,0,1,8,3.86l.5-.17Zm1.94,6.39-.49.15,0-3.7.52.22a2.42,2.42,0,0,1,1,.68,1.55,1.55,0,0,1,.31,1A1.68,1.68,0,0,1,10.41,13.69Z"/><rect class="cls-2" width="18" height="18"/></g></g></svg>