<svg xmlns="http://www.w3.org/2000/svg" width="37.9" height="37.9" viewBox="0 0 37.9 37.9"><defs><style>.cls-1{fill:#3187ef;}.cls-2{fill:none;}</style></defs><title>Asset 3</title><g id="Layer_2" data-name="Layer 2"><g id="Users_list" data-name="Users list"><path class="cls-1" d="M18.89,19.72H19a6.27,6.27,0,0,0,4.93-2c3-3.43,2.37-9.93,2.36-10a.18.18,0,0,1,0-.08C26,1.11,21.58.06,19,0h-.12c-2.09,0-7,.74-7.27,7.6,0,0,0,0,0,.08s-.66,6.59,2.37,10A6.25,6.25,0,0,0,18.89,19.72Z"/><path class="cls-1" d="M36,30.78c-.07-2.18-.32-4.57-2.55-5.36a29.81,29.81,0,0,1-8.74-4,1.28,1.28,0,0,1-.47-.68,9.24,9.24,0,0,1-5.17,1.56h-.31a9.22,9.22,0,0,1-5.15-1.55,1.27,1.27,0,0,1-.46.66,30.08,30.08,0,0,1-8.74,4C2.2,26.21,2,28.59,1.88,30.77c0,.09,0,.16,0,.24a16.45,16.45,0,0,0,.2,3A35.42,35.42,0,0,0,19,37.9,35.22,35.22,0,0,0,35.83,34a17.36,17.36,0,0,0,.2-3A2,2,0,0,1,36,30.78Z"/><rect class="cls-2" width="37.9" height="37.9"/></g></g></svg>