<svg xmlns="http://www.w3.org/2000/svg" width="25.5" height="25.49" viewBox="0 0 25.5 25.49"><defs><style>.cls-1{fill:#3187ef;}.cls-2{fill:none;}</style></defs><title>Asset 2</title><g id="Layer_2" data-name="Layer 2"><g id="Mission_details" data-name="Mission details"><path class="cls-1" d="M25.1,18.13c-2.9-2.9-3.41-4.27-3.41-9.18a8.95,8.95,0,1,0-17.89,0,14.93,14.93,0,0,1-.42,4.68,10.79,10.79,0,0,1-3,4.5,1.35,1.35,0,0,0,1,2.3H8.29L8.23,21a4.51,4.51,0,1,0,9,0l-.05-.55h6.94a1.35,1.35,0,0,0,1-2.3ZM15.83,21a3.09,3.09,0,0,1-6.17,0l.06-.56h6.06ZM24,19H1.54c3.69-3.75,3.69-6.27,3.69-10.05a7.52,7.52,0,1,1,15,0C20.27,12.73,20.27,15.25,24,19Z"/><rect class="cls-2" width="25.49" height="25.49"/></g></g></svg>