<svg xmlns="http://www.w3.org/2000/svg" width="26" height="26" viewBox="0 0 26 26"><defs><style>.cls-1{fill:none;}</style></defs><title>Asset 19</title><g id="Layer_2" data-name="Layer 2"><g id="User_Activity" data-name="User Activity"><path d="M24.85,5.47a.71.71,0,0,0-.5-.21H21.11V1.71A.71.71,0,0,0,20.41,1H1.65a.71.71,0,0,0-.71.71V5.93h0s0,15.26,0,15.29A3.93,3.93,0,0,0,4.87,25h17.5a2.51,2.51,0,0,0,1.92-.86,3.36,3.36,0,0,0,.76-2.25V6A.71.71,0,0,0,24.85,5.47ZM2.36,2.41H19.7V5.24H2.36ZM4.87,23.59a2.52,2.52,0,0,1-2.52-2.52V6.64H19.7V20.76s0,0,0,.06v1.07a3.8,3.8,0,0,0,.36,1.7Zm18.77-1.7c0,1-.49,1.7-1.27,1.7-.47,0-1.26-.22-1.26-1.7v-.3h1a.71.71,0,0,0,0-1.41h-1V18.6h1a.71.71,0,0,0,0-1.41h-1V15.68h1a.71.71,0,0,0,0-1.41h-1V12.72h1a.71.71,0,0,0,0-1.41h-1V9.77h1a.71.71,0,1,0,0-1.41h-1V6.64h2.53V21.89Z"/><path d="M18,19.7H4a.71.71,0,0,0,0,1.41H18a.71.71,0,0,0,0-1.41Z"/><path d="M18,16.75H4a.71.71,0,1,0,0,1.41H18a.71.71,0,1,0,0-1.41Z"/><path d="M18,13.79H12.16a.71.71,0,0,0,0,1.41H18a.71.71,0,1,0,0-1.41Z"/><path d="M18,10.84H12.16a.71.71,0,0,0,0,1.41H18a.71.71,0,1,0,0-1.41Z"/><path d="M18,7.88H12.16a.71.71,0,1,0,0,1.41H18a.71.71,0,1,0,0-1.41Z"/><path d="M9.14,15.22H4.86a1.56,1.56,0,0,1-1.55-1.55V9.39A1.56,1.56,0,0,1,4.86,7.83H9.14a1.56,1.56,0,0,1,1.55,1.55v4.28A1.56,1.56,0,0,1,9.14,15.22Zm-4.28-6a.14.14,0,0,0-.14.14v4.28a.14.14,0,0,0,.14.14H9.14a.14.14,0,0,0,.14-.14V9.39a.14.14,0,0,0-.14-.14Z"/><rect class="cls-1" width="26" height="26"/></g></g></svg>