<svg xmlns="http://www.w3.org/2000/svg" width="9.71" height="9.71" viewBox="0 0 9.71 9.71"><defs><style>.cls-1{fill:#3187ef;}.cls-2{fill:none;}</style></defs><title>Asset 4</title><g id="Layer_2" data-name="Layer 2"><g id="_All_content" data-name=" All content"><path class="cls-1" d="M9.36,4.76,4.93.33a.3.3,0,0,0-.44,0L4,.81A.33.33,0,0,0,3.92,1,.33.33,0,0,0,4,1.24L7.75,5,4,8.71a.33.33,0,0,0-.09.22A.31.31,0,0,0,4,9.14l.48.47a.3.3,0,0,0,.44,0L9.36,5.19a.3.3,0,0,0,0-.44Z"/><path class="cls-1" d="M6.09,5A.33.33,0,0,0,6,4.76L1.57.33a.33.33,0,0,0-.22-.1.33.33,0,0,0-.22.1L.66.81A.33.33,0,0,0,.56,1a.33.33,0,0,0,.09.22L4.39,5,.66,8.71a.33.33,0,0,0-.09.22.31.31,0,0,0,.09.22l.48.47a.33.33,0,0,0,.22.1.33.33,0,0,0,.22-.1L6,5.19A.33.33,0,0,0,6.09,5Z"/><rect class="cls-2" width="9.71" height="9.71"/></g></g></svg>