<svg xmlns="http://www.w3.org/2000/svg" width="20" height="20" viewBox="0 0 20 20"><defs><style>.cls-1{fill:#3187ef;}.cls-2{fill:none;}</style></defs><title>Asset 5</title><g id="Layer_2" data-name="Layer 2"><g id="_All_content" data-name=" All content"><path class="cls-1" d="M16.32,5.5a5.9,5.9,0,0,0-9-3.82A5.9,5.9,0,0,0,5.52,3.55a3.35,3.35,0,0,0-3.81,3.3,3.53,3.53,0,0,0,0,.54A4.55,4.55,0,0,0,0,11a4.85,4.85,0,0,0,1.23,3.21A4.41,4.41,0,0,0,4.3,15.7H7.78a.78.78,0,0,0,0-1.56H4.36A3.18,3.18,0,0,1,1.56,11,3,3,0,0,1,3,8.4a.79.79,0,0,0,.34-.95,1.73,1.73,0,0,1-.11-.61A1.77,1.77,0,0,1,5,5.07a1.73,1.73,0,0,1,.6.11.78.78,0,0,0,1-.4A4.33,4.33,0,0,1,14.85,6.2a.78.78,0,0,0,.65.69,3.67,3.67,0,0,1-.33,7.24h-3a.78.78,0,0,0,0,1.56h3A5,5,0,0,0,18.63,14a5.24,5.24,0,0,0-2.3-8.53Z"/><path class="cls-1" d="M12.87,11.88a.71.71,0,0,0,.56-.23.78.78,0,0,0,0-1.11L10.55,7.67a.8.8,0,0,0-1.1,0L6.58,10.54a.78.78,0,0,0,0,1.11.8.8,0,0,0,1.1,0l1.54-1.54v8.37a.78.78,0,1,0,1.56,0V10.11l1.54,1.54A.77.77,0,0,0,12.87,11.88Z"/><rect class="cls-2" width="20" height="20"/></g></g></svg>