<svg xmlns="http://www.w3.org/2000/svg" viewBox="0 0 21.09 24.39"><defs><style>.cls-1{fill:#fff;}</style></defs><title>bag_icon</title><g id="Layer_2" data-name="Layer 2"><g id="Library_-_Image_Details" data-name="Library - Image Details"><path class="cls-1" d="M10,16.35h1.34a.88.88,0,1,1,0,1.76H8.94a.58.58,0,1,0,0,1.17h1.15v.83a.58.58,0,1,0,1.17,0v-.83h.11a2,2,0,0,0,0-4.1H10a.88.88,0,0,1,0-1.76h2.36a.58.58,0,0,0,0-1.17h-1.1v-.81a.58.58,0,1,0-1.17,0v.81H10a2,2,0,0,0,0,4.1Z"/><path class="cls-1" d="M19.89,13.67h0a17.24,17.24,0,0,0-2.6-4.18,19.65,19.65,0,0,0-3-2.91l2.29-4.24a1.07,1.07,0,0,0-.2-1.27A3.37,3.37,0,0,0,14,0a5.5,5.5,0,0,0-2.12.55,2.22,2.22,0,0,1-1.07.28A9.06,9.06,0,0,0,7.7.12,4.41,4.41,0,0,0,4.42,1.64,1.08,1.08,0,0,0,4.29,3L6.72,6.64A19.93,19.93,0,0,0,3.8,9.49a17.36,17.36,0,0,0-2.6,4.18A14.29,14.29,0,0,0,0,19.37a5,5,0,0,0,5,5h11a5,5,0,0,0,5-5A14.28,14.28,0,0,0,19.89,13.67ZM12.57,8a17.23,17.23,0,0,1,3.08,2.92,13.11,13.11,0,0,1,3.28,8.49,2.86,2.86,0,0,1-2.86,2.87H5a2.88,2.88,0,0,1-2.87-2.87,13.14,13.14,0,0,1,3.28-8.48A17.51,17.51,0,0,1,8.51,8Zm-.3-2.15H8.76L6.61,2.58C7.49,2,8.47,2.26,10,2.84a3.87,3.87,0,0,0,2.67-.34A3.61,3.61,0,0,1,14,2.14a1,1,0,0,1,.27,0Z"/></g></g></svg>