<svg xmlns="http://www.w3.org/2000/svg" width="23.51" height="24.43" viewBox="0 0 23.51 24.43"><defs><style>.cls-1{fill:#fff;}</style></defs><title>Asset 1</title><g id="Layer_2" data-name="Layer 2"><g id="Add_Remove_account_-_ban_user" data-name="Add/Remove account - ban user"><path class="cls-1" d="M10.3,13.16h.16A4.67,4.67,0,0,0,14,11.62c1.95-2.2,1.62-6,1.59-6.32A5.16,5.16,0,0,0,13.16.71,5.62,5.62,0,0,0,10.44,0h-.09A5.63,5.63,0,0,0,7.63.69,5.16,5.16,0,0,0,5.15,5.3c0,.36-.36,4.12,1.59,6.32A4.65,4.65,0,0,0,10.3,13.16ZM6.5,5.43s0,0,0,0c.17-3.63,2.74-4,3.84-4h.06c1.37,0,3.69.59,3.84,4a.1.1,0,0,0,0,0S14.62,8.9,13,10.71a3.32,3.32,0,0,1-2.6,1.08h-.05a3.3,3.3,0,0,1-2.6-1.08C6.15,8.91,6.5,5.46,6.5,5.43Z"/><path class="cls-1" d="M16,14.24a15.08,15.08,0,0,1-1.8-1,.68.68,0,1,0-.78,1.12,14.77,14.77,0,0,0,1.37.81l0,0A5.77,5.77,0,0,1,16,14.24Z"/><path class="cls-1" d="M14.3,22.64a25,25,0,0,1-3.91.43A18.73,18.73,0,0,1,1.47,21a8.71,8.71,0,0,1-.11-1.56s0-.08,0-.13c0-1.15.17-2.41,1.35-2.83a15.9,15.9,0,0,0,4.62-2.11.68.68,0,0,0-.78-1.12,14.44,14.44,0,0,1-4.2,1.91l-.05,0C.1,15.92,0,18.26,0,19.26a1.05,1.05,0,0,1,0,.13v0a7.74,7.74,0,0,0,.26,2.29A.65.65,0,0,0,.52,22a19.13,19.13,0,0,0,9.87,2.42,28.53,28.53,0,0,0,5.08-.61,5.84,5.84,0,0,1-.63-.52A5.79,5.79,0,0,1,14.3,22.64Z"/><path class="cls-1" d="M22.06,15.7a5,5,0,1,0,1.46,3.51A4.94,4.94,0,0,0,22.06,15.7Zm.21,3.51a3.71,3.71,0,0,1-.69,2.16l-5.2-5.2a3.73,3.73,0,0,1,5.88,3Zm-7.45,0a3.71,3.71,0,0,1,.69-2.16l5.2,5.19a3.73,3.73,0,0,1-5.88-3Z"/></g></g></svg>