<svg xmlns="http://www.w3.org/2000/svg" width="22.43" height="22.43" viewBox="0 0 22.43 22.43"><defs><style>.cls-1{fill:red;}.cls-2{fill:none;}</style></defs><title>Asset 6</title><g id="Layer_2" data-name="Layer 2"><g id="Mission_details" data-name="Mission details"><path class="cls-1" d="M11.06,0h0A8.59,8.59,0,0,0,2.5,8.57c0,4.59,7.71,13.26,8,13.63a.71.71,0,0,0,1,.05l.06-.06c.82-.93,8-9.22,8-13.62A8.59,8.59,0,0,0,11.06,0Zm7.16,8.57c0,3.41-5.56,10.2-7.16,12.08C9.13,18.37,3.91,11.88,3.91,8.57a7.16,7.16,0,0,1,14.31,0Z"/><path class="cls-1" d="M11.21,4.16h0a4.77,4.77,0,0,0,0,9.54h0a4.77,4.77,0,0,0,0-9.54ZM7.85,8.93a3.36,3.36,0,1,1,3.36,3.36A3.36,3.36,0,0,1,7.85,8.93Z"/><rect class="cls-2" width="22.43" height="22.43"/></g></g></svg>