<svg xmlns="http://www.w3.org/2000/svg" width="54.08" height="54.08" viewBox="0 0 54.08 54.08"><defs><style>.cls-1{fill:#ff3874;}.cls-2{fill:none;}</style></defs><title>Asset 7</title><g id="Layer_2" data-name="Layer 2"><g id="Library_-_Delete_Object" data-name="Library - Delete Object"><path class="cls-1" d="M27,5.07A21.94,21.94,0,0,0,8.84,14.7a21.15,21.15,0,0,0-3.43,8.38,22,22,0,1,0,43.21-.19,21.09,21.09,0,0,0-3.5-8.35A22,22,0,0,0,27,5.07ZM27,0h0A27,27,0,1,1,0,27,27,27,0,0,1,27,0Zm-3.2,42.73a4.34,4.34,0,0,1-1.35-3.31,4,4,0,0,1,1.28-2.82A4.59,4.59,0,0,1,27,35.39a4.58,4.58,0,0,1,3.28,1.21,4,4,0,0,1,1.28,2.85,4.33,4.33,0,0,1-1.36,3.28,4.84,4.84,0,0,1-6.4,0ZM26,10.31h2.09a3.15,3.15,0,0,1,3.14,3.36l-1,15.41A3.15,3.15,0,0,1,27,32h0a3.15,3.15,0,0,1-3.14-2.94l-1-15.41A3.15,3.15,0,0,1,26,10.31Z"/><rect class="cls-2" width="53.83" height="53.83"/></g></g></svg>