<svg xmlns="http://www.w3.org/2000/svg" width="26" height="26" viewBox="0 0 26 26"><defs><style>.cls-1{fill:#3187ef;}.cls-2{fill:none;}</style></defs><title>Asset 30</title><g id="Layer_2" data-name="Layer 2"><g id="User_Activity" data-name="User Activity"><path class="cls-1" d="M11.23,6.24a.71.71,0,0,1-.66-.41,2.86,2.86,0,0,0-5.24,0,.71.71,0,0,1-.66.41H1.74A.74.74,0,0,0,1,7H1a.74.74,0,0,0,.74.74H4.68a.71.71,0,0,1,.66.41,2.86,2.86,0,0,0,5.24,0,.71.71,0,0,1,.66-.41h13A.74.74,0,0,0,25,7h0a.74.74,0,0,0-.74-.74ZM9.35,7A1.39,1.39,0,1,1,8,5.59,1.39,1.39,0,0,1,9.35,7Z"/><path class="cls-1" d="M18,10.14a2.87,2.87,0,0,0-2.62,1.72.71.71,0,0,1-.66.41h-13A.74.74,0,0,0,1,13H1a.74.74,0,0,0,.74.74h13a.71.71,0,0,1,.66.41,2.86,2.86,0,0,0,5.24,0,.71.71,0,0,1,.66-.41h2.94A.74.74,0,0,0,25,13h0a.74.74,0,0,0-.74-.74H21.33a.71.71,0,0,1-.66-.41A2.87,2.87,0,0,0,18,10.14ZM19.44,13A1.39,1.39,0,1,1,18,11.61,1.39,1.39,0,0,1,19.44,13Z"/><path class="cls-1" d="M13,16.16a2.86,2.86,0,0,0-2.62,1.72.71.71,0,0,1-.66.41h-8A.74.74,0,0,0,1,19H1a.74.74,0,0,0,.74.74h8a.71.71,0,0,1,.66.41,2.86,2.86,0,0,0,5.24,0,.71.71,0,0,1,.66-.41h8A.74.74,0,0,0,25,19h0a.74.74,0,0,0-.74-.74h-8a.71.71,0,0,1-.66-.41A2.87,2.87,0,0,0,13,16.16ZM14.39,19A1.39,1.39,0,1,1,13,17.63,1.39,1.39,0,0,1,14.39,19Z"/><rect class="cls-2" width="26" height="26"/></g></g></svg>