<svg xmlns="http://www.w3.org/2000/svg" width="16.01" height="16.01" viewBox="0 0 16.01 16.01"><defs><style>.cls-1{fill:none;}</style></defs><title>Asset 7</title><g id="Layer_2" data-name="Layer 2"><g id="Mission_details" data-name="Mission details"><path d="M5.5,6h2V8h-2Zm3,0h2V8h-2Zm3,0h2V8h-2Zm-9,6h2v2h-2Zm3,0h2v2h-2Zm3,0h2v2h-2Zm-3-3h2v2h-2Zm3,0h2v2h-2Zm3,0h2v2h-2Zm-9,0h2v2h-2Zm11-9V1h-2V0h-7V1h-2V0H.5V16h15V0Zm1,15H1.5V4h13Z"/><rect class="cls-1" width="16.01" height="16.01"/></g></g></svg>