<svg id="Layer_1" data-name="Layer 1" xmlns="http://www.w3.org/2000/svg" viewBox="0 0 44 44"><defs><style>.cls-1{fill:#5491f2;}.cls-2{fill:#fff;}</style></defs><title>tito_icon_webapp_events</title><g id="Layer_2" data-name="Layer 2"><g id="Find_and_assign" data-name="Find and assign"><path class="cls-1" d="M41.67,3.34H2.33A1.55,1.55,0,0,0,.78,4.9h0V34.23a1.55,1.55,0,0,0,1.55,1.49H15.91l5,5a1.55,1.55,0,0,0,2.19,0h0l5-5H41.67a1.55,1.55,0,0,0,1.55-1.55h0V4.9a1.55,1.55,0,0,0-1.55-1.55Z"/><path d="M22,42a2.32,2.32,0,0,1-1.64-.68l-4.76-4.76H2.33A2.33,2.33,0,0,1,0,34.22V4.9A2.33,2.33,0,0,1,2.33,2.56H41.67A2.33,2.33,0,0,1,44,4.9h0V34.22a2.33,2.33,0,0,1-2.33,2.33H28.41l-4.76,4.76A2.32,2.32,0,0,1,22,42ZM2.33,4.11a.78.78,0,0,0-.78.78V34.22a.78.78,0,0,0,.78.78h13.9l5.21,5.21a.8.8,0,0,0,1.1,0L27.76,35H41.67a.78.78,0,0,0,.78-.78V4.9a.78.78,0,0,0-.78-.78H2.33Z"/><polygon class="cls-2" points="22 9.5 25.02 16.55 32.67 17.25 26.88 22.31 28.59 29.8 22 25.86 15.4 29.8 17.11 22.31 11.32 17.25 18.98 16.55 22 9.5"/></g></g></svg>