<svg xmlns="http://www.w3.org/2000/svg" width="24" height="24" viewBox="0 0 24 24"><defs><style>.cls-1{fill:none;}.cls-2{fill:#3187ef;}</style></defs><title>Asset 1</title><g id="Layer_2" data-name="Layer 2"><g id="User_Activity" data-name="User Activity"><rect class="cls-1" width="24" height="24"/><path class="cls-2" d="M11.91,12.93h.16a4.59,4.59,0,0,0,3.5-1.52c1.91-2.16,1.6-5.85,1.56-6.21A5.07,5.07,0,0,0,14.73.7,5.53,5.53,0,0,0,12.05,0H12A5.53,5.53,0,0,0,9.29.68,5.07,5.07,0,0,0,6.85,5.21c0,.35-.35,4.05,1.56,6.21A4.57,4.57,0,0,0,11.91,12.93ZM8.18,5.33s0,0,0,0C8.35,1.73,10.88,1.35,12,1.35H12c1.34,0,3.62.58,3.78,3.95a.1.1,0,0,0,0,0s.35,3.41-1.23,5.19A3.26,3.26,0,0,1,12,11.59h0a3.25,3.25,0,0,1-2.55-1.06C7.84,8.76,8.18,5.36,8.18,5.33Z"/><path class="cls-2" d="M22.21,19.06h0s0-.08,0-.12c0-1-.09-3.29-2.25-4h0A14.34,14.34,0,0,1,15.77,13a.67.67,0,0,0-.77,1.1,15.48,15.48,0,0,0,4.54,2.07c1.16.41,1.29,1.65,1.32,2.78a1,1,0,0,0,0,.12,9,9,0,0,1-.1,1.54,18.29,18.29,0,0,1-8.76,2,18.4,18.4,0,0,1-8.77-2,8.54,8.54,0,0,1-.1-1.54s0-.08,0-.12c0-1.13.16-2.37,1.32-2.78A15.62,15.62,0,0,0,9,14.1.67.67,0,1,0,8.23,13,14.18,14.18,0,0,1,4.1,14.89h0c-2.16.74-2.22,3-2.25,4a1,1,0,0,1,0,.12h0A7.62,7.62,0,0,0,2,21.31a.64.64,0,0,0,.26.31A18.8,18.8,0,0,0,12,24a18.86,18.86,0,0,0,9.7-2.38.67.67,0,0,0,.26-.31A8,8,0,0,0,22.21,19.06Z"/></g></g></svg>