<svg xmlns="http://www.w3.org/2000/svg" width="26" height="26" viewBox="0 0 26 26"><defs><style>.cls-1{fill:#3187ef;}.cls-2{fill:none;}</style></defs><title>Asset 29</title><g id="Layer_2" data-name="Layer 2"><g id="User_Activity" data-name="User Activity"><path class="cls-1" d="M10.74,13.95h.16a4.59,4.59,0,0,0,3.5-1.52C16.31,10.27,16,6.58,16,6.22a5.07,5.07,0,0,0-2.41-4.51A5.53,5.53,0,0,0,10.88,1h-.08a5.53,5.53,0,0,0-2.67.68A5.07,5.07,0,0,0,5.68,6.22c0,.35-.35,4.05,1.56,6.21A4.57,4.57,0,0,0,10.74,13.95ZM7,6.35s0,0,0,0c.16-3.56,2.69-3.95,3.78-3.95h.06c1.34,0,3.62.58,3.78,3.95a.1.1,0,0,0,0,0S15,9.76,13.4,11.54a3.26,3.26,0,0,1-2.56,1.06h0a3.25,3.25,0,0,1-2.55-1.06C6.66,9.77,7,6.38,7,6.35Z"/><path class="cls-1" d="M18.53,15.86h0Z"/><path class="cls-1" d="M17.15,16.79a.86.86,0,0,1,.23-.75l.08-.08a.87.87,0,0,1,.67-.25A15,15,0,0,1,14.6,14a.67.67,0,1,0-.77,1.1,16,16,0,0,0,3.31,1.68Z"/><path class="cls-1" d="M17,22.78a32.77,32.77,0,0,1-6.22.9,18.4,18.4,0,0,1-8.77-2A8.54,8.54,0,0,1,2,20.1S2,20,2,20c0-1.13.16-2.37,1.32-2.78a15.62,15.62,0,0,0,4.54-2.07A.67.67,0,1,0,7,14,14.18,14.18,0,0,1,2.92,15.9h0c-2.16.74-2.22,3-2.25,4a1,1,0,0,1,0,.12h0a7.62,7.62,0,0,0,.25,2.25.64.64,0,0,0,.26.31A18.8,18.8,0,0,0,10.83,25a32,32,0,0,0,6.73-1A1.25,1.25,0,0,1,17,22.78Z"/><path class="cls-1" d="M25.1,17.72,22.86,20,25,22.15a.88.88,0,0,1,0,1.24l-.08.08a.88.88,0,0,1-1.24,0l-2.19-2.19L19.3,23.52a.88.88,0,0,1-1.24,0h0a.88.88,0,0,1,0-1.24L20.3,20l-2.21-2.21a.88.88,0,0,1,0-1.24l.08-.08a.88.88,0,0,1,1.24,0l2.21,2.21,2.24-2.24a.88.88,0,0,1,1.24,0h0A.88.88,0,0,1,25.1,17.72Z"/><rect class="cls-2" width="26" height="26"/></g></g></svg>