<svg xmlns="http://www.w3.org/2000/svg" width="55.02" height="55.02" viewBox="0 0 55.02 55.02"><defs><style>.cls-1{opacity:0.3;}.cls-2{fill:none;}.cls-3{fill:#00d472;}.cls-4{fill:#fff;}</style></defs><title>Asset 11</title><g id="Layer_2" data-name="Layer 2"><g id="Create_a_Mission" data-name="Create a Mission"><g class="cls-1"><rect class="cls-2" width="55.02" height="55.02"/><path class="cls-3" d="M51.74,4.18H3.28A1.91,1.91,0,0,0,1.36,6.09V42.23a1.91,1.91,0,0,0,1.91,1.91H20l6.14,6.14a1.91,1.91,0,0,0,2.71,0L35,44.14H51.74a1.91,1.91,0,0,0,1.91-1.91V6.09A1.91,1.91,0,0,0,51.74,4.18Z"/><path d="M27.51,51.8a2.85,2.85,0,0,1-2-.84L19.62,45.1H3.28A2.87,2.87,0,0,1,.41,42.23V6.09A2.87,2.87,0,0,1,3.28,3.22H51.74a2.87,2.87,0,0,1,2.87,2.87V42.23a2.87,2.87,0,0,1-2.87,2.87H35.4L29.54,51A2.85,2.85,0,0,1,27.51,51.8ZM3.28,5.13a1,1,0,0,0-1,1V42.23a1,1,0,0,0,1,1H20.41l6.42,6.42a1,1,0,0,0,1.35,0l6.42-6.42H51.74a1,1,0,0,0,1-1V6.09a1,1,0,0,0-1-1Z"/><path class="cls-4" d="M37.84,28.91c0-4.8-3.72-6.33-7-7.13C26.77,20.77,26,20,26,19a1.35,1.35,0,0,1,1.48-1.32c1.12,0,1.78.68,2.1,2.15l0,.21h7.72l0-.3c-.57-3.94-3.51-6.54-7.81-7V9.91H25.59v2.82c-4.61.65-7.48,3.29-7.48,7.1,0,3.57,2.17,5.75,6.84,6.85,3.72.86,5,1.59,5,2.79s-1.57,1.4-2.05,1.4a3.15,3.15,0,0,1-3-2.56l0-.2H17.18l0,.3c.49,4.16,3.5,6.78,8.38,7.41v2.81h3.87V35.9C34.66,35.49,37.84,32.89,37.84,28.91Z"/></g></g></g></svg>