<svg xmlns="http://www.w3.org/2000/svg" width="26" height="26" viewBox="0 0 26 26"><defs><style>.cls-1{fill:#3187ef;}.cls-2{fill:none;}</style></defs><title>Asset 28</title><g id="Layer_2" data-name="Layer 2"><g id="User_Activity" data-name="User Activity"><path class="cls-1" d="M24.35,3.43H1.65A.65.65,0,0,0,1,4.08V21.92a.65.65,0,0,0,.65.65h22.7a.65.65,0,0,0,.65-.65V4.08A.65.65,0,0,0,24.35,3.43Zm-.65,1.3V21.27H2.3V4.73Z"/><path class="cls-1" d="M7.73,12.89a2.5,2.5,0,1,0-2.5-2.5A2.51,2.51,0,0,0,7.73,12.89Zm-1.2-2.5a1.2,1.2,0,1,1,1.2,1.2A1.2,1.2,0,0,1,6.53,10.39Z"/><path class="cls-1" d="M4.08,20.14A.65.65,0,0,0,4.51,20L11,14.3l4,4a.66.66,0,0,0,.92,0,.65.65,0,0,0,0-.92L14.1,15.61l3.4-3.72,4.38,4a.65.65,0,0,0,.88-1L17.9,10.49a.67.67,0,0,0-.45-.17h0a.65.65,0,0,0-.45.21l-3.8,4.16L11.44,13a.65.65,0,0,0-.89,0L3.65,19a.65.65,0,0,0,.43,1.14Z"/><rect class="cls-2" width="26" height="26"/></g></g></svg>