<svg xmlns="http://www.w3.org/2000/svg" width="9.71" height="9.71" viewBox="0 0 9.71 9.71"><defs><style>.cls-1{fill:#4d4d4d;}.cls-2{fill:none;}</style></defs><title>Asset 3</title><g id="Layer_2" data-name="Layer 2"><g id="_All_content" data-name=" All content"><path class="cls-1" d="M.31,4.76,4.74.33a.3.3,0,0,1,.44,0l.48.47A.33.33,0,0,1,5.75,1a.33.33,0,0,1-.09.22L1.92,5,5.65,8.71a.33.33,0,0,1,.09.22.31.31,0,0,1-.09.22l-.48.47a.3.3,0,0,1-.44,0L.31,5.19a.3.3,0,0,1,0-.44Z"/><path class="cls-1" d="M3.58,5a.33.33,0,0,1,.09-.22L8.1.33a.3.3,0,0,1,.44,0L9,.81A.33.33,0,0,1,9.11,1,.33.33,0,0,1,9,1.24L5.28,5,9,8.71a.33.33,0,0,1,.09.22A.31.31,0,0,1,9,9.14l-.48.47a.3.3,0,0,1-.44,0L3.67,5.19A.33.33,0,0,1,3.58,5Z"/><rect class="cls-2" width="9.71" height="9.71" transform="translate(9.71 9.71) rotate(-180)"/></g></g></svg>