<svg xmlns="http://www.w3.org/2000/svg" width="23.39" height="23.39" viewBox="0 0 23.39 23.39"><defs><style>.cls-1{fill:#fff;}.cls-2{fill:none;}</style></defs><title>Asset 6</title><g id="Layer_2" data-name="Layer 2"><g id="Library_-_Image_Details" data-name="Library - Image Details"><path class="cls-1" d="M22.49.11A1.46,1.46,0,0,0,21.93,0H13.16a1.46,1.46,0,0,0,0,2.92H18.4L6.28,15a1.46,1.46,0,0,0,2.07,2.07h0L20.46,5v5.24a1.46,1.46,0,0,0,2.92,0V1.46A1.46,1.46,0,0,0,22.49.11Z"/><path class="cls-1" d="M20.46,13.89v6.58H2.92V2.92H9.5V0H2.92A2.93,2.93,0,0,0,0,2.92V20.46a2.93,2.93,0,0,0,2.92,2.92H20.46a2.93,2.93,0,0,0,2.92-2.92V13.89H20.46Z"/><rect class="cls-2" width="23.39" height="23.39"/></g></g></svg>