<svg xmlns="http://www.w3.org/2000/svg" width="22" height="22" viewBox="0 0 22 22"><defs><style>.cls-1{fill:#4d4d4d;}.cls-2{fill:none;}</style></defs><title>Asset 5</title><g id="Layer_2" data-name="Layer 2"><g id="Mission_details" data-name="Mission details"><path class="cls-1" d="M19.25,22a1.59,1.59,0,0,1-1.13-.47l-4-4a1.59,1.59,0,0,1-.39-.65,9,9,0,0,1-4.63,1.27,9.05,9.05,0,1,1,9.05-9.05,9,9,0,0,1-1.27,4.63,1.58,1.58,0,0,1,.65.39l4,4a1.61,1.61,0,0,1,0,2.26l-1.15,1.15a1.58,1.58,0,0,1-1.13.47Zm-4.38-7.13v1.49a.34.34,0,0,0,.1.24l4,4a.34.34,0,0,0,.24.1h0a.33.33,0,0,0,.24-.1l1.15-1.15a.35.35,0,0,0,0-.49l-4-4a.34.34,0,0,0-.24-.1ZM9.06,1.26a7.8,7.8,0,0,0,0,15.59,7.72,7.72,0,0,0,4.8-1.65l.76-.59.59-.76a7.72,7.72,0,0,0,1.65-4.8A7.81,7.81,0,0,0,9.06,1.26Zm0,13.61a5.81,5.81,0,1,1,5.81-5.81A5.82,5.82,0,0,1,9.06,14.87Zm0-10.37a4.56,4.56,0,1,0,4.56,4.56A4.56,4.56,0,0,0,9.06,4.5Z"/><rect class="cls-2" width="22" height="22"/></g></g></svg>